<svg version="1.1" viewBox="0.0 0.0 600.0 371.0" fill="none" stroke="none" stroke-linecap="square" stroke-miterlimit="10" width="600" height="371" xmlns:xlink="http://www.w3.org/1999/xlink" xmlns="http://www.w3.org/2000/svg"><path fill="#ffffff" d="M0 0L600.0 0L600.0 371.0L0 371.0L0 0Z" fill-rule="nonzero"/><path stroke="#333333" stroke-width="1.0" stroke-linecap="butt" d="M45.5 345.5L581.5 345.5" fill-rule="nonzero"/><path stroke="#cccccc" stroke-width="1.0" stroke-linecap="butt" d="M45.5 281.5L581.5 281.5" fill-rule="nonzero"/><path stroke="#cccccc" stroke-width="1.0" stroke-linecap="butt" d="M45.5 216.5L581.5 216.5" fill-rule="nonzero"/><path stroke="#cccccc" stroke-width="1.0" stroke-linecap="butt" d="M45.5 152.5L581.5 152.5" fill-rule="nonzero"/><path stroke="#cccccc" stroke-width="1.0" stroke-linecap="butt" d="M45.5 88.5L581.5 88.5" fill-rule="nonzero"/><path stroke="#e6e6e6" stroke-width="1.0" stroke-linecap="butt" d="M45.5 324.5L581.5 324.5" fill-rule="nonzero"/><path stroke="#e6e6e6" stroke-width="1.0" stroke-linecap="butt" d="M45.5 302.5L581.5 302.5" fill-rule="nonzero"/><path stroke="#e6e6e6" stroke-width="1.0" stroke-linecap="butt" d="M45.5 259.5L581.5 259.5" fill-rule="nonzero"/><path stroke="#e6e6e6" stroke-width="1.0" stroke-linecap="butt" d="M45.5 238.5L581.5 238.5" fill-rule="nonzero"/><path stroke="#e6e6e6" stroke-width="1.0" stroke-linecap="butt" d="M45.5 195.5L581.5 195.5" fill-rule="nonzero"/><path stroke="#e6e6e6" stroke-width="1.0" stroke-linecap="butt" d="M45.5 174.5L581.5 174.5" fill-rule="nonzero"/><path stroke="#e6e6e6" stroke-width="1.0" stroke-linecap="butt" d="M45.5 131.5L581.5 131.5" fill-rule="nonzero"/><path stroke="#e6e6e6" stroke-width="1.0" stroke-linecap="butt" d="M45.5 109.5L581.5 109.5" fill-rule="nonzero"/><clipPath id="id_0"><path d="M45.55 88.28333L581.45 88.28333L581.45 345.45L45.55 345.45L45.55 88.28333Z" clip-rule="nonzero"/></clipPath><path stroke="#000000" stroke-width="2.0" stroke-linecap="butt" stroke-opacity="0.0" clip-path="url(#id_0)" d="M146.0 345.0L81.0 345.0L81.0 345.0L146.0 345.0Z" fill-rule="nonzero"/><path fill="#4285f4" clip-path="url(#id_0)" d="M146.0 345.0L81.0 345.0L81.0 345.0L146.0 345.0Z" fill-rule="nonzero"/><path stroke="#000000" stroke-width="2.0" stroke-linecap="butt" stroke-opacity="0.0" clip-path="url(#id_0)" d="M246.0 345.0L181.0 345.0L181.0 325.0L246.0 325.0Z" fill-rule="nonzero"/><path fill="#4285f4" clip-path="url(#id_0)" d="M246.0 345.0L181.0 345.0L181.0 325.0L246.0 325.0Z" fill-rule="nonzero"/><path stroke="#000000" stroke-width="2.0" stroke-linecap="butt" stroke-opacity="0.0" clip-path="url(#id_0)" d="M347.0 345.0L282.0 345.0L282.0 343.0L347.0 343.0Z" fill-rule="nonzero"/><path fill="#4285f4" clip-path="url(#id_0)" d="M347.0 345.0L282.0 345.0L282.0 343.0L347.0 343.0Z" fill-rule="nonzero"/><path stroke="#000000" stroke-width="2.0" stroke-linecap="butt" stroke-opacity="0.0" clip-path="url(#id_0)" d="M447.0 345.0L382.0 345.0L382.0 345.0L447.0 345.0Z" fill-rule="nonzero"/><path fill="#4285f4" clip-path="url(#id_0)" d="M447.0 345.0L382.0 345.0L382.0 345.0L447.0 345.0Z" fill-rule="nonzero"/><path stroke="#000000" stroke-width="2.0" stroke-linecap="butt" stroke-opacity="0.0" clip-path="url(#id_0)" d="M547.0 345.0L482.0 345.0L482.0 345.0L547.0 345.0Z" fill-rule="nonzero"/><path fill="#4285f4" clip-path="url(#id_0)" d="M547.0 345.0L482.0 345.0L482.0 345.0L547.0 345.0Z" fill-rule="nonzero"/><path stroke="#000000" stroke-width="2.0" stroke-linecap="butt" stroke-opacity="0.0" clip-path="url(#id_0)" d="M146.0 345.0L81.0 345.0L81.0 345.0L146.0 345.0Z" fill-rule="nonzero"/><path fill="#ea4335" clip-path="url(#id_0)" d="M146.0 345.0L81.0 345.0L81.0 345.0L146.0 345.0Z" fill-rule="nonzero"/><path stroke="#000000" stroke-width="2.0" stroke-linecap="butt" stroke-opacity="0.0" clip-path="url(#id_0)" d="M246.0 325.0L181.0 325.0L181.0 317.0L246.0 317.0Z" fill-rule="nonzero"/><path fill="#ea4335" clip-path="url(#id_0)" d="M246.0 325.0L181.0 325.0L181.0 317.0L246.0 317.0Z" fill-rule="nonzero"/><path stroke="#000000" stroke-width="2.0" stroke-linecap="butt" stroke-opacity="0.0" clip-path="url(#id_0)" d="M347.0 343.0L282.0 343.0L282.0 333.0L347.0 333.0Z" fill-rule="nonzero"/><path fill="#ea4335" clip-path="url(#id_0)" d="M347.0 343.0L282.0 343.0L282.0 333.0L347.0 333.0Z" fill-rule="nonzero"/><path stroke="#000000" stroke-width="2.0" stroke-linecap="butt" stroke-opacity="0.0" clip-path="url(#id_0)" d="M447.0 345.0L382.0 345.0L382.0 345.0L447.0 345.0Z" fill-rule="nonzero"/><path fill="#ea4335" clip-path="url(#id_0)" d="M447.0 345.0L382.0 345.0L382.0 345.0L447.0 345.0Z" fill-rule="nonzero"/><path stroke="#000000" stroke-width="2.0" stroke-linecap="butt" stroke-opacity="0.0" clip-path="url(#id_0)" d="M547.0 345.0L482.0 345.0L482.0 345.0L547.0 345.0Z" fill-rule="nonzero"/><path fill="#ea4335" clip-path="url(#id_0)" d="M547.0 345.0L482.0 345.0L482.0 345.0L547.0 345.0Z" fill-rule="nonzero"/><path stroke="#000000" stroke-width="2.0" stroke-linecap="butt" stroke-opacity="0.0" clip-path="url(#id_0)" d="M146.0 345.0L81.0 345.0L81.0 345.0L146.0 345.0Z" fill-rule="nonzero"/><path fill="#fbbc04" clip-path="url(#id_0)" d="M146.0 345.0L81.0 345.0L81.0 345.0L146.0 345.0Z" fill-rule="nonzero"/><path stroke="#000000" stroke-width="2.0" stroke-linecap="butt" stroke-opacity="0.0" clip-path="url(#id_0)" d="M246.0 317.0L181.0 317.0L181.0 284.0L246.0 284.0Z" fill-rule="nonzero"/><path fill="#fbbc04" clip-path="url(#id_0)" d="M246.0 317.0L181.0 317.0L181.0 284.0L246.0 284.0Z" fill-rule="nonzero"/><path stroke="#000000" stroke-width="2.0" stroke-linecap="butt" stroke-opacity="0.0" clip-path="url(#id_0)" d="M347.0 333.0L282.0 333.0L282.0 332.0L347.0 332.0Z" fill-rule="nonzero"/><path fill="#fbbc04" clip-path="url(#id_0)" d="M347.0 333.0L282.0 333.0L282.0 332.0L347.0 332.0Z" fill-rule="nonzero"/><path stroke="#000000" stroke-width="2.0" stroke-linecap="butt" stroke-opacity="0.0" clip-path="url(#id_0)" d="M447.0 345.0L382.0 345.0L382.0 329.0L447.0 329.0Z" fill-rule="nonzero"/><path fill="#fbbc04" clip-path="url(#id_0)" d="M447.0 345.0L382.0 345.0L382.0 329.0L447.0 329.0Z" fill-rule="nonzero"/><path stroke="#000000" stroke-width="2.0" stroke-linecap="butt" stroke-opacity="0.0" clip-path="url(#id_0)" d="M547.0 345.0L482.0 345.0L482.0 345.0L547.0 345.0Z" fill-rule="nonzero"/><path fill="#fbbc04" clip-path="url(#id_0)" d="M547.0 345.0L482.0 345.0L482.0 345.0L547.0 345.0Z" fill-rule="nonzero"/><path stroke="#000000" stroke-width="2.0" stroke-linecap="butt" stroke-opacity="0.0" clip-path="url(#id_0)" d="M146.0 345.0L81.0 345.0L81.0 345.0L146.0 345.0Z" fill-rule="nonzero"/><path fill="#34a853" clip-path="url(#id_0)" d="M146.0 345.0L81.0 345.0L81.0 345.0L146.0 345.0Z" fill-rule="nonzero"/><path stroke="#000000" stroke-width="2.0" stroke-linecap="butt" stroke-opacity="0.0" clip-path="url(#id_0)" d="M246.0 284.0L181.0 284.0L181.0 167.0L246.0 167.0Z" fill-rule="nonzero"/><path fill="#34a853" clip-path="url(#id_0)" d="M246.0 284.0L181.0 284.0L181.0 167.0L246.0 167.0Z" fill-rule="nonzero"/><path stroke="#000000" stroke-width="2.0" stroke-linecap="butt" stroke-opacity="0.0" clip-path="url(#id_0)" d="M347.0 332.0L282.0 332.0L282.0 291.0L347.0 291.0Z" fill-rule="nonzero"/><path fill="#34a853" clip-path="url(#id_0)" d="M347.0 332.0L282.0 332.0L282.0 291.0L347.0 291.0Z" fill-rule="nonzero"/><path stroke="#000000" stroke-width="2.0" stroke-linecap="butt" stroke-opacity="0.0" clip-path="url(#id_0)" d="M447.0 329.0L382.0 329.0L382.0 328.0L447.0 328.0Z" fill-rule="nonzero"/><path fill="#34a853" clip-path="url(#id_0)" d="M447.0 329.0L382.0 329.0L382.0 328.0L447.0 328.0Z" fill-rule="nonzero"/><path stroke="#000000" stroke-width="2.0" stroke-linecap="butt" stroke-opacity="0.0" clip-path="url(#id_0)" d="M547.0 345.0L482.0 345.0L482.0 342.0L547.0 342.0Z" fill-rule="nonzero"/><path fill="#34a853" clip-path="url(#id_0)" d="M547.0 345.0L482.0 345.0L482.0 342.0L547.0 342.0Z" fill-rule="nonzero"/><path stroke="#000000" stroke-width="2.0" stroke-linecap="butt" stroke-opacity="0.0" clip-path="url(#id_0)" d="M146.0 345.0L81.0 345.0L81.0 299.0C81.0 297.89542 81.89543 297.0 83.0 297.0L144.0 297.0C145.10457 297.0 146.0 297.89542 146.0 299.0Z" fill-rule="nonzero"/><path fill="#ff6d01" clip-path="url(#id_0)" d="M146.0 345.0L81.0 345.0L81.0 299.0C81.0 297.89542 81.89543 297.0 83.0 297.0L144.0 297.0C145.10457 297.0 146.0 297.89542 146.0 299.0Z" fill-rule="nonzero"/><path stroke="#000000" stroke-width="2.0" stroke-linecap="butt" stroke-opacity="0.0" clip-path="url(#id_0)" d="M246.0 167.0L181.0 167.0L181.0 133.0C181.0 131.89543 181.89543 131.0 183.0 131.0L244.0 131.0C245.10457 131.0 246.0 131.89543 246.0 133.0Z" fill-rule="nonzero"/><path fill="#ff6d01" clip-path="url(#id_0)" d="M246.0 167.0L181.0 167.0L181.0 133.0C181.0 131.89543 181.89543 131.0 183.0 131.0L244.0 131.0C245.10457 131.0 246.0 131.89543 246.0 133.0Z" fill-rule="nonzero"/><path stroke="#000000" stroke-width="2.0" stroke-linecap="butt" stroke-opacity="0.0" clip-path="url(#id_0)" d="M347.0 291.0L282.0 291.0L282.0 290.5C282.0 290.22385 282.22385 290.0 282.5 290.0L346.5 290.0C346.77615 290.0 347.0 290.22385 347.0 290.5Z" fill-rule="nonzero"/><path fill="#ff6d01" clip-path="url(#id_0)" d="M347.0 291.0L282.0 291.0L282.0 290.5C282.0 290.22385 282.22385 290.0 282.5 290.0L346.5 290.0C346.77615 290.0 347.0 290.22385 347.0 290.5Z" fill-rule="nonzero"/><path stroke="#000000" stroke-width="2.0" stroke-linecap="butt" stroke-opacity="0.0" clip-path="url(#id_0)" d="M447.0 328.0L382.0 328.0L382.0 326.5C382.0 325.67157 382.67157 325.0 383.5 325.0L445.5 325.0C446.32843 325.0 447.0 325.67157 447.0 326.5Z" fill-rule="nonzero"/><path fill="#ff6d01" clip-path="url(#id_0)" d="M447.0 328.0L382.0 328.0L382.0 326.5C382.0 325.67157 382.67157 325.0 383.5 325.0L445.5 325.0C446.32843 325.0 447.0 325.67157 447.0 326.5Z" fill-rule="nonzero"/><path stroke="#000000" stroke-width="2.0" stroke-linecap="butt" stroke-opacity="0.0" clip-path="url(#id_0)" d="M547.0 342.0L482.0 342.0L482.0 342.0L547.0 342.0Z" fill-rule="nonzero"/><path fill="#ff6d01" clip-path="url(#id_0)" d="M547.0 342.0L482.0 342.0L482.0 342.0L547.0 342.0Z" fill-rule="nonzero"/><path fill="#000000" d="M33.05 345.21564Q33.05 343.6844 33.3625 342.7625Q33.675 341.825 34.284374 341.325Q34.909374 340.825 35.846874 340.825Q36.534374 340.825 37.05 341.10626Q37.58125 341.3875 37.925 341.91876Q38.26875 342.4344 38.45625 343.1844Q38.64375 343.9344 38.64375 345.21564Q38.64375 346.73126 38.33125 347.65314Q38.034374 348.575 37.409374 349.09064Q36.8 349.59064 35.846874 349.59064Q34.6125 349.59064 33.89375 348.7Q33.05 347.6375 33.05 345.21564ZM34.128124 345.21564Q34.128124 347.325 34.628124 348.02814Q35.128124 348.73126 35.846874 348.73126Q36.58125 348.73126 37.065624 348.02814Q37.565624 347.325 37.565624 345.21564Q37.565624 343.09064 37.065624 342.40314Q36.58125 341.7 35.83125 341.7Q35.1125 341.7 34.675 342.3094Q34.128124 343.09064 34.128124 345.21564Z" fill-rule="nonzero"/><path fill="#000000" d="M24.596874 284.1427L24.596874 285.15833L18.909374 285.15833Q18.909374 284.78333 19.034374 284.42395Q19.253124 283.84583 19.721874 283.28333Q20.20625 282.72083 21.1125 281.98645Q22.51875 280.8302 23.003124 280.15833Q23.503124 279.48645 23.503124 278.8927Q23.503124 278.2677 23.05 277.84583Q22.596874 277.40833 21.878124 277.40833Q21.1125 277.40833 20.659374 277.86145Q20.20625 278.31458 20.190624 279.12708L19.1125 279.0177Q19.221874 277.79895 19.940624 277.17395Q20.675 276.53333 21.909374 276.53333Q23.14375 276.53333 23.8625 277.22083Q24.58125 277.90833 24.58125 278.92395Q24.58125 279.43958 24.3625 279.93958Q24.159374 280.42395 23.659374 280.98645Q23.175 281.53333 22.05 282.48645Q21.096874 283.28333 20.815624 283.5802Q20.55 283.86145 20.378124 284.1427L24.596874 284.1427ZM26.05 280.92395Q26.05 279.3927 26.3625 278.47083Q26.675 277.53333 27.284374 277.03333Q27.909374 276.53333 28.846874 276.53333Q29.534374 276.53333 30.05 276.81458Q30.58125 277.09583 30.925 277.62708Q31.26875 278.1427 31.45625 278.8927Q31.64375 279.6427 31.64375 280.92395Q31.64375 282.43958 31.33125 283.36145Q31.034374 284.28333 30.409374 284.79895Q29.8 285.29895 28.846874 285.29895Q27.6125 285.29895 26.89375 284.40833Q26.05 283.34583 26.05 280.92395ZM27.128124 280.92395Q27.128124 283.03333 27.628124 283.73645Q28.128124 284.43958 28.846874 284.43958Q29.58125 284.43958 30.065624 283.73645Q30.565624 283.03333 30.565624 280.92395Q30.565624 278.79895 30.065624 278.11145Q29.58125 277.40833 28.83125 277.40833Q28.1125 277.40833 27.675 278.0177Q27.128124 278.79895 27.128124 280.92395ZM33.05 280.92395Q33.05 279.3927 33.3625 278.47083Q33.675 277.53333 34.284374 277.03333Q34.909374 276.53333 35.846874 276.53333Q36.534374 276.53333 37.05 276.81458Q37.58125 277.09583 37.925 277.62708Q38.26875 278.1427 38.45625 278.8927Q38.64375 279.6427 38.64375 280.92395Q38.64375 282.43958 38.33125 283.36145Q38.034374 284.28333 37.409374 284.79895Q36.8 285.29895 35.846874 285.29895Q34.6125 285.29895 33.89375 284.40833Q33.05 283.34583 33.05 280.92395ZM34.128124 280.92395Q34.128124 283.03333 34.628124 283.73645Q35.128124 284.43958 35.846874 284.43958Q36.58125 284.43958 37.065624 283.73645Q37.565624 283.03333 37.565624 280.92395Q37.565624 278.79895 37.065624 278.11145Q36.58125 277.40833 35.83125 277.40833Q35.1125 277.40833 34.675 278.0177Q34.128124 278.79895 34.128124 280.92395Z" fill-rule="nonzero"/><path fill="#000000" d="M22.425 220.86667L22.425 218.80417L18.70625 218.80417L18.70625 217.83542L22.628124 212.27292L23.4875 212.27292L23.4875 217.83542L24.64375 217.83542L24.64375 218.80417L23.4875 218.80417L23.4875 220.86667L22.425 220.86667ZM22.425 217.83542L22.425 213.97604L19.7375 217.83542L22.425 217.83542ZM26.05 216.6323Q26.05 215.10104 26.3625 214.17917Q26.675 213.24167 27.284374 212.74167Q27.909374 212.24167 28.846874 212.24167Q29.534374 212.24167 30.05 212.52292Q30.58125 212.80417 30.925 213.33542Q31.26875 213.85104 31.45625 214.60104Q31.64375 215.35104 31.64375 216.6323Q31.64375 218.14792 31.33125 219.0698Q31.034374 219.99167 30.409374 220.5073Q29.8 221.0073 28.846874 221.0073Q27.6125 221.0073 26.89375 220.11667Q26.05 219.05417 26.05 216.6323ZM27.128124 216.6323Q27.128124 218.74167 27.628124 219.4448Q28.128124 220.14792 28.846874 220.14792Q29.58125 220.14792 30.065624 219.4448Q30.565624 218.74167 30.565624 216.6323Q30.565624 214.5073 30.065624 213.8198Q29.58125 213.11667 28.83125 213.11667Q28.1125 213.11667 27.675 213.72604Q27.128124 214.5073 27.128124 216.6323ZM33.05 216.6323Q33.05 215.10104 33.3625 214.17917Q33.675 213.24167 34.284374 212.74167Q34.909374 212.24167 35.846874 212.24167Q36.534374 212.24167 37.05 212.52292Q37.58125 212.80417 37.925 213.33542Q38.26875 213.85104 38.45625 214.60104Q38.64375 215.35104 38.64375 216.6323Q38.64375 218.14792 38.33125 219.0698Q38.034374 219.99167 37.409374 220.5073Q36.8 221.0073 35.846874 221.0073Q34.6125 221.0073 33.89375 220.11667Q33.05 219.05417 33.05 216.6323ZM34.128124 216.6323Q34.128124 218.74167 34.628124 219.4448Q35.128124 220.14792 35.846874 220.14792Q36.58125 220.14792 37.065624 219.4448Q37.565624 218.74167 37.565624 216.6323Q37.565624 214.5073 37.065624 213.8198Q36.58125 213.11667 35.83125 213.11667Q35.1125 213.11667 34.675 213.72604Q34.128124 214.5073 34.128124 216.6323Z" fill-rule="nonzero"/><path fill="#000000" d="M24.51875 150.09062L23.471874 150.16875Q23.33125 149.54375 23.08125 149.2625Q22.64375 148.80937 22.01875 148.80937Q21.51875 148.80937 21.128124 149.09062Q20.64375 149.46562 20.346874 150.16875Q20.065624 150.85625 20.05 152.1375Q20.425 151.55937 20.971874 151.27812Q21.534374 150.99687 22.14375 150.99687Q23.190624 150.99687 23.925 151.77812Q24.675 152.55937 24.675 153.77812Q24.675 154.59062 24.315624 155.29375Q23.971874 155.98125 23.3625 156.35625Q22.753124 156.71562 21.9875 156.71562Q20.659374 156.71562 19.83125 155.74687Q19.003124 154.77812 19.003124 152.55937Q19.003124 150.05937 19.925 148.93437Q20.721874 147.95 22.08125 147.95Q23.096874 147.95 23.7375 148.52812Q24.39375 149.09062 24.51875 150.09062ZM20.221874 153.79375Q20.221874 154.34062 20.440624 154.84062Q20.675 155.325 21.08125 155.59062Q21.503124 155.85625 21.971874 155.85625Q22.628124 155.85625 23.1125 155.325Q23.596874 154.77812 23.596874 153.85625Q23.596874 152.96562 23.1125 152.45Q22.64375 151.93437 21.925 151.93437Q21.20625 151.93437 20.70625 152.45Q20.221874 152.96562 20.221874 153.79375ZM26.05 152.34062Q26.05 150.80937 26.3625 149.8875Q26.675 148.95 27.284374 148.45Q27.909374 147.95 28.846874 147.95Q29.534374 147.95 30.05 148.23125Q30.58125 148.5125 30.925 149.04375Q31.26875 149.55937 31.45625 150.30937Q31.64375 151.05937 31.64375 152.34062Q31.64375 153.85625 31.33125 154.77812Q31.034374 155.7 30.409374 156.21562Q29.8 156.71562 28.846874 156.71562Q27.6125 156.71562 26.89375 155.825Q26.05 154.7625 26.05 152.34062ZM27.128124 152.34062Q27.128124 154.45 27.628124 155.15312Q28.128124 155.85625 28.846874 155.85625Q29.58125 155.85625 30.065624 155.15312Q30.565624 154.45 30.565624 152.34062Q30.565624 150.21562 30.065624 149.52812Q29.58125 148.825 28.83125 148.825Q28.1125 148.825 27.675 149.43437Q27.128124 150.21562 27.128124 152.34062ZM33.05 152.34062Q33.05 150.80937 33.3625 149.8875Q33.675 148.95 34.284374 148.45Q34.909374 147.95 35.846874 147.95Q36.534374 147.95 37.05 148.23125Q37.58125 148.5125 37.925 149.04375Q38.26875 149.55937 38.45625 150.30937Q38.64375 151.05937 38.64375 152.34062Q38.64375 153.85625 38.33125 154.77812Q38.034374 155.7 37.409374 156.21562Q36.8 156.71562 35.846874 156.71562Q34.6125 156.71562 33.89375 155.825Q33.05 154.7625 33.05 152.34062ZM34.128124 152.34062Q34.128124 154.45 34.628124 155.15312Q35.128124 155.85625 35.846874 155.85625Q36.58125 155.85625 37.065624 155.15312Q37.565624 154.45 37.565624 152.34062Q37.565624 150.21562 37.065624 149.52812Q36.58125 148.825 35.83125 148.825Q35.1125 148.825 34.675 149.43437Q34.128124 150.21562 34.128124 152.34062Z" fill-rule="nonzero"/><path fill="#000000" d="M20.675 87.62708Q20.01875 87.37708 19.690624 86.93958Q19.378124 86.48646 19.378124 85.87708Q19.378124 84.93958 20.05 84.29896Q20.7375 83.65833 21.846874 83.65833Q22.971874 83.65833 23.659374 84.31458Q24.346874 84.97083 24.346874 85.90833Q24.346874 86.50208 24.034374 86.93958Q23.721874 87.37708 23.08125 87.62708Q23.878124 87.87708 24.284374 88.45521Q24.690624 89.03333 24.690624 89.83021Q24.690624 90.92396 23.909374 91.67396Q23.14375 92.42396 21.8625 92.42396Q20.596874 92.42396 19.815624 91.67396Q19.034374 90.92396 19.034374 89.79896Q19.034374 88.95521 19.45625 88.39271Q19.89375 87.83021 20.675 87.62708ZM20.45625 85.83021Q20.45625 86.43958 20.846874 86.83021Q21.253124 87.22083 21.878124 87.22083Q22.4875 87.22083 22.878124 86.84583Q23.26875 86.45521 23.26875 85.89271Q23.26875 85.31458 22.8625 84.92396Q22.45625 84.51771 21.8625 84.51771Q21.253124 84.51771 20.846874 84.90833Q20.45625 85.29896 20.45625 85.83021ZM20.128124 89.79896Q20.128124 90.25208 20.33125 90.67396Q20.55 91.09583 20.971874 91.33021Q21.39375 91.56458 21.878124 91.56458Q22.628124 91.56458 23.1125 91.08021Q23.6125 90.59583 23.6125 89.84583Q23.6125 89.08021 23.1125 88.58021Q22.6125 88.08021 21.846874 88.08021Q21.096874 88.08021 20.6125 88.58021Q20.128124 89.06458 20.128124 89.79896ZM26.05 88.04896Q26.05 86.51771 26.3625 85.59583Q26.675 84.65833 27.284374 84.15833Q27.909374 83.65833 28.846874 83.65833Q29.534374 83.65833 30.05 83.93958Q30.58125 84.22083 30.925 84.75208Q31.26875 85.26771 31.45625 86.01771Q31.64375 86.76771 31.64375 88.04896Q31.64375 89.56458 31.33125 90.48646Q31.034374 91.40833 30.409374 91.92396Q29.8 92.42396 28.846874 92.42396Q27.6125 92.42396 26.89375 91.53333Q26.05 90.47083 26.05 88.04896ZM27.128124 88.04896Q27.128124 90.15833 27.628124 90.86146Q28.128124 91.56458 28.846874 91.56458Q29.58125 91.56458 30.065624 90.86146Q30.565624 90.15833 30.565624 88.04896Q30.565624 85.92396 30.065624 85.23646Q29.58125 84.53333 28.83125 84.53333Q28.1125 84.53333 27.675 85.14271Q27.128124 85.92396 27.128124 88.04896ZM33.05 88.04896Q33.05 86.51771 33.3625 85.59583Q33.675 84.65833 34.284374 84.15833Q34.909374 83.65833 35.846874 83.65833Q36.534374 83.65833 37.05 83.93958Q37.58125 84.22083 37.925 84.75208Q38.26875 85.26771 38.45625 86.01771Q38.64375 86.76771 38.64375 88.04896Q38.64375 89.56458 38.33125 90.48646Q38.034374 91.40833 37.409374 91.92396Q36.8 92.42396 35.846874 92.42396Q34.6125 92.42396 33.89375 91.53333Q33.05 90.47083 33.05 88.04896ZM34.128124 88.04896Q34.128124 90.15833 34.628124 90.86146Q35.128124 91.56458 35.846874 91.56458Q36.58125 91.56458 37.065624 90.86146Q37.565624 90.15833 37.565624 88.04896Q37.565624 85.92396 37.065624 85.23646Q36.58125 84.53333 35.83125 84.53333Q35.1125 84.53333 34.675 85.14271Q34.128124 85.92396 34.128124 88.04896Z" fill-rule="nonzero"/><path fill="#ff6d01" d="M80.0 56.916668C80.0 56.364384 80.447716 55.916668 81.0 55.916668L91.0 55.916668C91.552284 55.916668 92.0 56.364384 92.0 56.916668L92.0 66.916664C92.0 67.46895 91.552284 67.916664 91.0 67.916664L81.0 67.916664C80.447716 67.916664 80.0 67.46895 80.0 66.916664Z" fill-rule="nonzero"/><path fill="#1a1a1a" d="M100.875 65.916664L100.875 57.322914L102.015625 57.322914L102.015625 64.90104L106.25 64.90104L106.25 65.916664L100.875 65.916664ZM107.796875 58.541664L107.796875 57.322914L108.859375 57.322914L108.859375 58.541664L107.796875 58.541664ZM107.796875 65.916664L107.796875 59.697914L108.859375 59.697914L108.859375 65.916664L107.796875 65.916664ZM112.515625 65.916664L110.15625 59.697914L111.265625 59.697914L112.609375 63.416664Q112.8125 64.02604 113.0 64.666664Q113.140625 64.18229 113.390625 63.49479L114.78125 59.697914L115.859375 59.697914L113.5 65.916664L112.515625 65.916664ZM120.046875 63.916664L121.140625 64.041664Q120.890625 64.99479 120.1875 65.52604Q119.484375 66.05729 118.40625 66.05729Q117.046875 66.05729 116.234375 65.21354Q115.4375 64.36979 115.4375 62.854164Q115.4375 61.291664 116.25 60.43229Q117.0625 59.55729 118.34375 59.55729Q119.59375 59.55729 120.375 60.40104Q121.171875 61.24479 121.171875 62.791664Q121.171875 62.885414 121.171875 63.072914L116.53125 63.072914Q116.59375 64.104164 117.109375 64.65104Q117.625 65.18229 118.40625 65.18229Q118.984375 65.18229 119.390625 64.885414Q119.8125 64.572914 120.046875 63.916664ZM116.59375 62.21354L120.0625 62.21354Q120.0 61.416664 119.671875 61.02604Q119.15625 60.416664 118.359375 60.416664Q117.625 60.416664 117.125 60.90104Q116.640625 61.385414 116.59375 62.21354ZM129.82812 65.916664L129.82812 65.135414Q129.23438 66.05729 128.09375 66.05729Q127.34375 66.05729 126.71875 65.65104Q126.09375 65.229164 125.75 64.49479Q125.40625 63.760414 125.40625 62.80729Q125.40625 61.885414 125.71875 61.11979Q126.03125 60.354164 126.65625 59.96354Q127.28125 59.55729 128.04688 59.55729Q128.60938 59.55729 129.04688 59.791664Q129.48438 60.02604 129.76562 60.40104L129.76562 57.322914L130.8125 57.322914L130.8125 65.916664L129.82812 65.916664ZM126.5 62.80729Q126.5 64.010414 127.0 64.604164Q127.5 65.18229 128.1875 65.18229Q128.875 65.18229 129.35938 64.61979Q129.84375 64.05729 129.84375 62.90104Q129.84375 61.61979 129.34375 61.02604Q128.85938 60.43229 128.14062 60.43229Q127.4375 60.43229 126.96875 61.010414Q126.5 61.572914 126.5 62.80729ZM132.79688 58.541664L132.79688 57.322914L133.85938 57.322914L133.85938 58.541664L132.79688 58.541664ZM132.79688 65.916664L132.79688 59.697914L133.85938 59.697914L133.85938 65.916664L132.79688 65.916664ZM135.79688 65.916664L135.79688 59.697914L136.73438 59.697914L136.73438 60.572914Q137.42188 59.55729 138.71875 59.55729Q139.28125 59.55729 139.75 59.760414Q140.23438 59.96354 140.46875 60.291664Q140.70312 60.61979 140.79688 61.05729Q140.84375 61.354164 140.84375 62.08854L140.84375 65.916664L139.79688 65.916664L139.79688 62.135414Q139.79688 61.479164 139.67188 61.166664Q139.54688 60.854164 139.23438 60.666664Q138.92188 60.46354 138.5 60.46354Q137.82812 60.46354 137.32812 60.90104Q136.84375 61.322914 136.84375 62.510414L136.84375 65.916664L135.79688 65.916664ZM142.40625 62.80729Q142.40625 61.072914 143.35938 60.24479Q144.15625 59.55729 145.3125 59.55729Q146.59375 59.55729 147.40625 60.40104Q148.23438 61.229164 148.23438 62.71354Q148.23438 63.916664 147.875 64.604164Q147.51562 65.291664 146.8125 65.68229Q146.125 66.05729 145.3125 66.05729Q144.01562 66.05729 143.20312 65.229164Q142.40625 64.385414 142.40625 62.80729ZM143.48438 62.80729Q143.48438 63.99479 144.0 64.58854Q144.53125 65.18229 145.3125 65.18229Q146.10938 65.18229 146.625 64.58854Q147.14062 63.99479 147.14062 62.77604Q147.14062 61.61979 146.60938 61.02604Q146.09375 60.43229 145.3125 60.43229Q144.53125 60.43229 144.0 61.02604Q143.48438 61.604164 143.48438 62.80729ZM149.375 64.05729L150.40625 63.90104Q150.5 64.52604 150.89062 64.854164Q151.29688 65.18229 152.03125 65.18229Q152.75 65.18229 153.09375 64.90104Q153.45312 64.604164 153.45312 64.197914Q153.45312 63.83854 153.14062 63.635414Q152.92188 63.49479 152.0625 63.27604Q150.90625 62.979164 150.45312 62.77604Q150.01562 62.55729 149.78125 62.18229Q149.54688 61.80729 149.54688 61.33854Q149.54688 60.93229 149.73438 60.572914Q149.92188 60.21354 150.25 59.979164Q150.5 59.80729 150.92188 59.68229Q151.34375 59.55729 151.84375 59.55729Q152.5625 59.55729 153.10938 59.77604Q153.67188 59.979164 153.9375 60.33854Q154.20312 60.697914 154.29688 61.291664L153.26562 61.43229Q153.20312 60.96354 152.85938 60.697914Q152.53125 60.416664 151.90625 60.416664Q151.1875 60.416664 150.875 60.666664Q150.5625 60.90104 150.5625 61.229164Q150.5625 61.43229 150.6875 61.58854Q150.82812 61.760414 151.09375 61.86979Q151.25 61.93229 152.03125 62.135414Q153.15625 62.447914 153.59375 62.635414Q154.03125 62.822914 154.28125 63.18229Q154.53125 63.541664 154.53125 64.08854Q154.53125 64.61979 154.21875 65.08854Q153.92188 65.541664 153.34375 65.80729Q152.76562 66.05729 152.03125 66.05729Q150.8125 66.05729 150.17188 65.55729Q149.54688 65.041664 149.375 64.05729Z" fill-rule="nonzero"/><path fill="#34a853" d="M172.0 56.916668C172.0 56.364384 172.44771 55.916668 173.0 55.916668L183.0 55.916668C183.55229 55.916668 184.0 56.364384 184.0 56.916668L184.0 66.916664C184.0 67.46895 183.55229 67.916664 183.0 67.916664L173.0 67.916664C172.44771 67.916664 172.0 67.46895 172.0 66.916664Z" fill-rule="nonzero"/><path fill="#1a1a1a" d="M192.875 65.916664L192.875 57.322914L196.10938 57.322914Q197.09375 57.322914 197.6875 57.58854Q198.28125 57.854164 198.60938 58.40104Q198.95312 58.93229 198.95312 59.52604Q198.95312 60.072914 198.65625 60.55729Q198.35938 61.041664 197.75 61.33854Q198.53125 61.572914 198.9375 62.135414Q199.35938 62.68229 199.35938 63.43229Q199.35938 64.02604 199.10938 64.55729Q198.85938 65.072914 198.48438 65.354164Q198.10938 65.635414 197.53125 65.77604Q196.96875 65.916664 196.15625 65.916664L192.875 65.916664ZM194.01562 60.93229L195.875 60.93229Q196.625 60.93229 196.95312 60.83854Q197.39062 60.71354 197.60938 60.416664Q197.82812 60.104164 197.82812 59.65104Q197.82812 59.229164 197.625 58.90104Q197.42188 58.572914 197.03125 58.46354Q196.65625 58.33854 195.73438 58.33854L194.01562 58.33854L194.01562 60.93229ZM194.01562 64.90104L196.15625 64.90104Q196.70312 64.90104 196.92188 64.854164Q197.32812 64.791664 197.57812 64.635414Q197.84375 64.46354 198.01562 64.15104Q198.1875 63.83854 198.1875 63.43229Q198.1875 62.947914 197.9375 62.58854Q197.70312 62.229164 197.26562 62.08854Q196.82812 61.947914 196.0 61.947914L194.01562 61.947914L194.01562 64.90104ZM200.40625 62.80729Q200.40625 61.072914 201.35938 60.24479Q202.15625 59.55729 203.3125 59.55729Q204.59375 59.55729 205.40625 60.40104Q206.23438 61.229164 206.23438 62.71354Q206.23438 63.916664 205.875 64.604164Q205.51562 65.291664 204.8125 65.68229Q204.125 66.05729 203.3125 66.05729Q202.01562 66.05729 201.20312 65.229164Q200.40625 64.385414 200.40625 62.80729ZM201.48438 62.80729Q201.48438 63.99479 202.0 64.58854Q202.53125 65.18229 203.3125 65.18229Q204.10938 65.18229 204.625 64.58854Q205.14062 63.99479 205.14062 62.77604Q205.14062 61.61979 204.60938 61.02604Q204.09375 60.43229 203.3125 60.43229Q202.53125 60.43229 202.0 61.02604Q201.48438 61.604164 201.48438 62.80729ZM207.79688 65.916664L207.79688 59.697914L208.73438 59.697914L208.73438 60.572914Q209.42188 59.55729 210.71875 59.55729Q211.28125 59.55729 211.75 59.760414Q212.23438 59.96354 212.46875 60.291664Q212.70312 60.61979 212.79688 61.05729Q212.84375 61.354164 212.84375 62.08854L212.84375 65.916664L211.79688 65.916664L211.79688 62.135414Q211.79688 61.479164 211.67188 61.166664Q211.54688 60.854164 211.23438 60.666664Q210.92188 60.46354 210.5 60.46354Q209.82812 60.46354 209.32812 60.90104Q208.84375 61.322914 208.84375 62.510414L208.84375 65.916664L207.79688 65.916664ZM214.75 68.30729L214.625 67.322914Q214.96875 67.416664 215.23438 67.416664Q215.57812 67.416664 215.78125 67.291664Q216.0 67.18229 216.14062 66.979164Q216.23438 66.80729 216.46875 66.18229Q216.48438 66.104164 216.5625 65.93229L214.1875 59.697914L215.32812 59.697914L216.625 63.291664Q216.875 63.979164 217.07812 64.74479Q217.26562 64.010414 217.51562 63.322914L218.84375 59.697914L219.89062 59.697914L217.53125 66.02604Q217.14062 67.041664 216.9375 67.43229Q216.65625 67.96354 216.28125 68.197914Q215.92188 68.447914 215.42188 68.447914Q215.125 68.447914 214.75 68.30729ZM223.04688 65.916664L223.04688 60.510414L222.10938 60.510414L222.10938 59.697914L223.04688 59.697914L223.04688 59.02604Q223.04688 58.40104 223.15625 58.104164Q223.3125 57.68229 223.6875 57.43229Q224.07812 57.18229 224.76562 57.18229Q225.21875 57.18229 225.75 57.291664L225.59375 58.197914Q225.26562 58.15104 224.96875 58.15104Q224.48438 58.15104 224.28125 58.354164Q224.09375 58.55729 224.09375 59.11979L224.09375 59.697914L225.3125 59.697914L225.3125 60.510414L224.09375 60.510414L224.09375 65.916664L223.04688 65.916664ZM225.79688 58.541664L225.79688 57.322914L226.85938 57.322914L226.85938 58.541664L225.79688 58.541664ZM225.79688 65.916664L225.79688 59.697914L226.85938 59.697914L226.85938 65.916664L225.79688 65.916664ZM228.375 64.05729L229.40625 63.90104Q229.5 64.52604 229.89062 64.854164Q230.29688 65.18229 231.03125 65.18229Q231.75 65.18229 232.09375 64.90104Q232.45312 64.604164 232.45312 64.197914Q232.45312 63.83854 232.14062 63.635414Q231.92188 63.49479 231.0625 63.27604Q229.90625 62.979164 229.45312 62.77604Q229.01562 62.55729 228.78125 62.18229Q228.54688 61.80729 228.54688 61.33854Q228.54688 60.93229 228.73438 60.572914Q228.92188 60.21354 229.25 59.979164Q229.5 59.80729 229.92188 59.68229Q230.34375 59.55729 230.84375 59.55729Q231.5625 59.55729 232.10938 59.77604Q232.67188 59.979164 232.9375 60.33854Q233.20312 60.697914 233.29688 61.291664L232.26562 61.43229Q232.20312 60.96354 231.85938 60.697914Q231.53125 60.416664 230.90625 60.416664Q230.1875 60.416664 229.875 60.666664Q229.5625 60.90104 229.5625 61.229164Q229.5625 61.43229 229.6875 61.58854Q229.82812 61.760414 230.09375 61.86979Q230.25 61.93229 231.03125 62.135414Q232.15625 62.447914 232.59375 62.635414Q233.03125 62.822914 233.28125 63.18229Q233.53125 63.541664 233.53125 64.08854Q233.53125 64.61979 233.21875 65.08854Q232.92188 65.541664 232.34375 65.80729Q231.76562 66.05729 231.03125 66.05729Q229.8125 66.05729 229.17188 65.55729Q228.54688 65.041664 228.375 64.05729ZM235.79688 65.916664L235.79688 57.322914L236.84375 57.322914L236.84375 60.40104Q237.57812 59.55729 238.70312 59.55729Q239.40625 59.55729 239.90625 59.83854Q240.42188 60.104164 240.64062 60.58854Q240.85938 61.05729 240.85938 61.979164L240.85938 65.916664L239.8125 65.916664L239.8125 61.979164Q239.8125 61.18229 239.46875 60.822914Q239.125 60.46354 238.5 60.46354Q238.03125 60.46354 237.60938 60.71354Q237.20312 60.947914 237.01562 61.36979Q236.84375 61.77604 236.84375 62.510414L236.84375 65.916664L235.79688 65.916664Z" fill-rule="nonzero"/><path fill="#fbbc04" d="M258.0 56.916668C258.0 56.364384 258.44772 55.916668 259.0 55.916668L269.0 55.916668C269.55228 55.916668 270.0 56.364384 270.0 56.916668L270.0 66.916664C270.0 67.46895 269.55228 67.916664 269.0 67.916664L259.0 67.916664C258.44772 67.916664 258.0 67.46895 258.0 66.916664Z" fill-rule="nonzero"/><path fill="#1a1a1a" d="M278.89062 65.916664L278.89062 57.322914L280.60938 57.322914L282.64062 63.40104Q282.92188 64.260414 283.04688 64.68229Q283.1875 64.21354 283.5 63.30729L285.5625 57.322914L287.09375 57.322914L287.09375 65.916664L286.0 65.916664L286.0 58.729164L283.5 65.916664L282.46875 65.916664L279.98438 58.604164L279.98438 65.916664L278.89062 65.916664ZM291.85938 65.15104Q291.26562 65.65104 290.71875 65.854164Q290.1875 66.05729 289.5625 66.05729Q288.53125 66.05729 287.98438 65.55729Q287.4375 65.05729 287.4375 64.27604Q287.4375 63.822914 287.64062 63.447914Q287.84375 63.05729 288.1875 62.83854Q288.53125 62.604164 288.95312 62.49479Q289.25 62.40104 289.89062 62.322914Q291.15625 62.18229 291.76562 61.96354Q291.76562 61.74479 291.76562 61.697914Q291.76562 61.041664 291.46875 60.77604Q291.0625 60.43229 290.26562 60.43229Q289.53125 60.43229 289.17188 60.697914Q288.8125 60.947914 288.64062 61.604164L287.60938 61.46354Q287.75 60.80729 288.07812 60.40104Q288.40625 59.99479 289.01562 59.77604Q289.625 59.55729 290.42188 59.55729Q291.21875 59.55729 291.71875 59.74479Q292.21875 59.93229 292.45312 60.21354Q292.6875 60.49479 292.78125 60.93229Q292.82812 61.197914 292.82812 61.90104L292.82812 63.30729Q292.82812 64.77604 292.89062 65.166664Q292.96875 65.55729 293.17188 65.916664L292.0625 65.916664Q291.90625 65.58854 291.85938 65.15104ZM291.76562 62.791664Q291.1875 63.02604 290.04688 63.197914Q289.39062 63.291664 289.125 63.416664Q288.85938 63.52604 288.70312 63.74479Q288.5625 63.96354 288.5625 64.24479Q288.5625 64.666664 288.875 64.947914Q289.20312 65.229164 289.8125 65.229164Q290.42188 65.229164 290.89062 64.96354Q291.375 64.697914 291.59375 64.229164Q291.76562 63.86979 291.76562 63.18229L291.76562 62.791664ZM294.79688 65.916664L294.79688 59.697914L295.73438 59.697914L295.73438 60.572914Q296.03125 60.104164 296.51562 59.83854Q297.0 59.55729 297.625 59.55729Q298.3125 59.55729 298.75 59.83854Q299.20312 60.11979 299.375 60.635414Q300.125 59.55729 301.29688 59.55729Q302.23438 59.55729 302.71875 60.072914Q303.21875 60.572914 303.21875 61.65104L303.21875 65.916664L302.17188 65.916664L302.17188 61.99479Q302.17188 61.36979 302.0625 61.08854Q301.96875 60.80729 301.70312 60.635414Q301.4375 60.46354 301.0625 60.46354Q300.40625 60.46354 299.96875 60.90104Q299.54688 61.33854 299.54688 62.30729L299.54688 65.916664L298.48438 65.916664L298.48438 61.86979Q298.48438 61.166664 298.21875 60.822914Q297.96875 60.46354 297.39062 60.46354Q296.9375 60.46354 296.5625 60.697914Q296.1875 60.93229 296.01562 61.385414Q295.84375 61.83854 295.84375 62.68229L295.84375 65.916664L294.79688 65.916664ZM305.79688 65.916664L305.79688 59.697914L306.73438 59.697914L306.73438 60.572914Q307.03125 60.104164 307.51562 59.83854Q308.0 59.55729 308.625 59.55729Q309.3125 59.55729 309.75 59.83854Q310.20312 60.11979 310.375 60.635414Q311.125 59.55729 312.29688 59.55729Q313.23438 59.55729 313.71875 60.072914Q314.21875 60.572914 314.21875 61.65104L314.21875 65.916664L313.17188 65.916664L313.17188 61.99479Q313.17188 61.36979 313.0625 61.08854Q312.96875 60.80729 312.70312 60.635414Q312.4375 60.46354 312.0625 60.46354Q311.40625 60.46354 310.96875 60.90104Q310.54688 61.33854 310.54688 62.30729L310.54688 65.916664L309.48438 65.916664L309.48438 61.86979Q309.48438 61.166664 309.21875 60.822914Q308.96875 60.46354 308.39062 60.46354Q307.9375 60.46354 307.5625 60.697914Q307.1875 60.93229 307.01562 61.385414Q306.84375 61.83854 306.84375 62.68229L306.84375 65.916664L305.79688 65.916664ZM320.85938 65.15104Q320.26562 65.65104 319.71875 65.854164Q319.1875 66.05729 318.5625 66.05729Q317.53125 66.05729 316.98438 65.55729Q316.4375 65.05729 316.4375 64.27604Q316.4375 63.822914 316.64062 63.447914Q316.84375 63.05729 317.1875 62.83854Q317.53125 62.604164 317.95312 62.49479Q318.25 62.40104 318.89062 62.322914Q320.15625 62.18229 320.76562 61.96354Q320.76562 61.74479 320.76562 61.697914Q320.76562 61.041664 320.46875 60.77604Q320.0625 60.43229 319.26562 60.43229Q318.53125 60.43229 318.17188 60.697914Q317.8125 60.947914 317.64062 61.604164L316.60938 61.46354Q316.75 60.80729 317.07812 60.40104Q317.40625 59.99479 318.01562 59.77604Q318.625 59.55729 319.42188 59.55729Q320.21875 59.55729 320.71875 59.74479Q321.21875 59.93229 321.45312 60.21354Q321.6875 60.49479 321.78125 60.93229Q321.82812 61.197914 321.82812 61.90104L321.82812 63.30729Q321.82812 64.77604 321.89062 65.166664Q321.96875 65.55729 322.17188 65.916664L321.0625 65.916664Q320.90625 65.58854 320.85938 65.15104ZM320.76562 62.791664Q320.1875 63.02604 319.04688 63.197914Q318.39062 63.291664 318.125 63.416664Q317.85938 63.52604 317.70312 63.74479Q317.5625 63.96354 317.5625 64.24479Q317.5625 64.666664 317.875 64.947914Q318.20312 65.229164 318.8125 65.229164Q319.42188 65.229164 319.89062 64.96354Q320.375 64.697914 320.59375 64.229164Q320.76562 63.86979 320.76562 63.18229L320.76562 62.791664ZM323.76562 65.916664L323.76562 57.322914L324.82812 57.322914L324.82812 65.916664L323.76562 65.916664ZM326.375 64.05729L327.40625 63.90104Q327.5 64.52604 327.89062 64.854164Q328.29688 65.18229 329.03125 65.18229Q329.75 65.18229 330.09375 64.90104Q330.45312 64.604164 330.45312 64.197914Q330.45312 63.83854 330.14062 63.635414Q329.92188 63.49479 329.0625 63.27604Q327.90625 62.979164 327.45312 62.77604Q327.01562 62.55729 326.78125 62.18229Q326.54688 61.80729 326.54688 61.33854Q326.54688 60.93229 326.73438 60.572914Q326.92188 60.21354 327.25 59.979164Q327.5 59.80729 327.92188 59.68229Q328.34375 59.55729 328.84375 59.55729Q329.5625 59.55729 330.10938 59.77604Q330.67188 59.979164 330.9375 60.33854Q331.20312 60.697914 331.29688 61.291664L330.26562 61.43229Q330.20312 60.96354 329.85938 60.697914Q329.53125 60.416664 328.90625 60.416664Q328.1875 60.416664 327.875 60.666664Q327.5625 60.90104 327.5625 61.229164Q327.5625 61.43229 327.6875 61.58854Q327.82812 61.760414 328.09375 61.86979Q328.25 61.93229 329.03125 62.135414Q330.15625 62.447914 330.59375 62.635414Q331.03125 62.822914 331.28125 63.18229Q331.53125 63.541664 331.53125 64.08854Q331.53125 64.61979 331.21875 65.08854Q330.92188 65.541664 330.34375 65.80729Q329.76562 66.05729 329.03125 66.05729Q327.8125 66.05729 327.17188 65.55729Q326.54688 65.041664 326.375 64.05729Z" fill-rule="nonzero"/><path fill="#ea4335" d="M349.0 56.916668C349.0 56.364384 349.44772 55.916668 350.0 55.916668L360.0 55.916668C360.55228 55.916668 361.0 56.364384 361.0 56.916668L361.0 66.916664C361.0 67.46895 360.55228 67.916664 360.0 67.916664L350.0 67.916664C349.44772 67.916664 349.0 67.46895 349.0 66.916664Z" fill-rule="nonzero"/><path fill="#1a1a1a" d="M376.0625 62.90104L377.1875 63.197914Q376.82812 64.58854 375.90625 65.322914Q374.98438 66.05729 373.64062 66.05729Q372.25 66.05729 371.375 65.49479Q370.5 64.93229 370.04688 63.86979Q369.59375 62.791664 369.59375 61.55729Q369.59375 60.21354 370.10938 59.21354Q370.625 58.21354 371.5625 57.697914Q372.51562 57.18229 373.65625 57.18229Q374.9375 57.18229 375.8125 57.83854Q376.70312 58.49479 377.04688 59.68229L375.92188 59.947914Q375.625 59.010414 375.04688 58.58854Q374.48438 58.15104 373.625 58.15104Q372.64062 58.15104 371.96875 58.635414Q371.3125 59.104164 371.03125 59.90104Q370.76562 60.697914 370.76562 61.55729Q370.76562 62.65104 371.07812 63.46354Q371.40625 64.27604 372.07812 64.68229Q372.75 65.08854 373.54688 65.08854Q374.5 65.08854 375.15625 64.541664Q375.82812 63.99479 376.0625 62.90104ZM382.85938 65.15104Q382.26562 65.65104 381.71875 65.854164Q381.1875 66.05729 380.5625 66.05729Q379.53125 66.05729 378.98438 65.55729Q378.4375 65.05729 378.4375 64.27604Q378.4375 63.822914 378.64062 63.447914Q378.84375 63.05729 379.1875 62.83854Q379.53125 62.604164 379.95312 62.49479Q380.25 62.40104 380.89062 62.322914Q382.15625 62.18229 382.76562 61.96354Q382.76562 61.74479 382.76562 61.697914Q382.76562 61.041664 382.46875 60.77604Q382.0625 60.43229 381.26562 60.43229Q380.53125 60.43229 380.17188 60.697914Q379.8125 60.947914 379.64062 61.604164L378.60938 61.46354Q378.75 60.80729 379.07812 60.40104Q379.40625 59.99479 380.01562 59.77604Q380.625 59.55729 381.42188 59.55729Q382.21875 59.55729 382.71875 59.74479Q383.21875 59.93229 383.45312 60.21354Q383.6875 60.49479 383.78125 60.93229Q383.82812 61.197914 383.82812 61.90104L383.82812 63.30729Q383.82812 64.77604 383.89062 65.166664Q383.96875 65.55729 384.17188 65.916664L383.0625 65.916664Q382.90625 65.58854 382.85938 65.15104ZM382.76562 62.791664Q382.1875 63.02604 381.04688 63.197914Q380.39062 63.291664 380.125 63.416664Q379.85938 63.52604 379.70312 63.74479Q379.5625 63.96354 379.5625 64.24479Q379.5625 64.666664 379.875 64.947914Q380.20312 65.229164 380.8125 65.229164Q381.42188 65.229164 381.89062 64.96354Q382.375 64.697914 382.59375 64.229164Q382.76562 63.86979 382.76562 63.18229L382.76562 62.791664ZM385.78125 65.916664L385.78125 59.697914L386.73438 59.697914L386.73438 60.635414Q387.09375 59.979164 387.39062 59.77604Q387.70312 59.55729 388.07812 59.55729Q388.60938 59.55729 389.15625 59.885414L388.79688 60.86979Q388.40625 60.635414 388.03125 60.635414Q387.67188 60.635414 387.39062 60.854164Q387.125 61.05729 387.01562 61.43229Q386.82812 61.99479 386.82812 62.65104L386.82812 65.916664L385.78125 65.916664ZM392.09375 64.979164L392.25 65.90104Q391.79688 65.99479 391.45312 65.99479Q390.875 65.99479 390.5625 65.822914Q390.25 65.635414 390.10938 65.33854Q389.98438 65.041664 389.98438 64.08854L389.98438 60.510414L389.21875 60.510414L389.21875 59.697914L389.98438 59.697914L389.98438 58.15104L391.03125 57.52604L391.03125 59.697914L392.09375 59.697914L392.09375 60.510414L391.03125 60.510414L391.03125 64.15104Q391.03125 64.604164 391.07812 64.729164Q391.14062 64.854164 391.26562 64.93229Q391.39062 65.010414 391.625 65.010414Q391.8125 65.010414 392.09375 64.979164ZM393.09375 65.916664L393.09375 64.71354L394.29688 64.71354L394.29688 65.916664L393.09375 65.916664ZM399.04688 65.916664L399.04688 60.510414L398.10938 60.510414L398.10938 59.697914L399.04688 59.697914L399.04688 59.02604Q399.04688 58.40104 399.15625 58.104164Q399.3125 57.68229 399.6875 57.43229Q400.07812 57.18229 400.76562 57.18229Q401.21875 57.18229 401.75 57.291664L401.59375 58.197914Q401.26562 58.15104 400.96875 58.15104Q400.48438 58.15104 400.28125 58.354164Q400.09375 58.55729 400.09375 59.11979L400.09375 59.697914L401.3125 59.697914L401.3125 60.510414L400.09375 60.510414L400.09375 65.916664L399.04688 65.916664ZM401.79688 58.541664L401.79688 57.322914L402.85938 57.322914L402.85938 58.541664L401.79688 58.541664ZM401.79688 65.916664L401.79688 59.697914L402.85938 59.697914L402.85938 65.916664L401.79688 65.916664ZM404.375 64.05729L405.40625 63.90104Q405.5 64.52604 405.89062 64.854164Q406.29688 65.18229 407.03125 65.18229Q407.75 65.18229 408.09375 64.90104Q408.45312 64.604164 408.45312 64.197914Q408.45312 63.83854 408.14062 63.635414Q407.92188 63.49479 407.0625 63.27604Q405.90625 62.979164 405.45312 62.77604Q405.01562 62.55729 404.78125 62.18229Q404.54688 61.80729 404.54688 61.33854Q404.54688 60.93229 404.73438 60.572914Q404.92188 60.21354 405.25 59.979164Q405.5 59.80729 405.92188 59.68229Q406.34375 59.55729 406.84375 59.55729Q407.5625 59.55729 408.10938 59.77604Q408.67188 59.979164 408.9375 60.33854Q409.20312 60.697914 409.29688 61.291664L408.26562 61.43229Q408.20312 60.96354 407.85938 60.697914Q407.53125 60.416664 406.90625 60.416664Q406.1875 60.416664 405.875 60.666664Q405.5625 60.90104 405.5625 61.229164Q405.5625 61.43229 405.6875 61.58854Q405.82812 61.760414 406.09375 61.86979Q406.25 61.93229 407.03125 62.135414Q408.15625 62.447914 408.59375 62.635414Q409.03125 62.822914 409.28125 63.18229Q409.53125 63.541664 409.53125 64.08854Q409.53125 64.61979 409.21875 65.08854Q408.92188 65.541664 408.34375 65.80729Q407.76562 66.05729 407.03125 66.05729Q405.8125 66.05729 405.17188 65.55729Q404.54688 65.041664 404.375 64.05729ZM411.79688 65.916664L411.79688 57.322914L412.84375 57.322914L412.84375 60.40104Q413.57812 59.55729 414.70312 59.55729Q415.40625 59.55729 415.90625 59.83854Q416.42188 60.104164 416.64062 60.58854Q416.85938 61.05729 416.85938 61.979164L416.85938 65.916664L415.8125 65.916664L415.8125 61.979164Q415.8125 61.18229 415.46875 60.822914Q415.125 60.46354 414.5 60.46354Q414.03125 60.46354 413.60938 60.71354Q413.20312 60.947914 413.01562 61.36979Q412.84375 61.77604 412.84375 62.510414L412.84375 65.916664L411.79688 65.916664Z" fill-rule="nonzero"/><path fill="#4285f4" d="M434.0 56.916668C434.0 56.364384 434.44772 55.916668 435.0 55.916668L445.0 55.916668C445.55228 55.916668 446.0 56.364384 446.0 56.916668L446.0 66.916664C446.0 67.46895 445.55228 67.916664 445.0 67.916664L435.0 67.916664C434.44772 67.916664 434.0 67.46895 434.0 66.916664Z" fill-rule="nonzero"/><path fill="#1a1a1a" d="M453.98438 65.916664L457.28125 57.322914L458.5 57.322914L462.01562 65.916664L460.73438 65.916664L459.71875 63.30729L456.14062 63.30729L455.1875 65.916664L453.98438 65.916664ZM456.46875 62.385414L459.375 62.385414L458.48438 60.010414Q458.0625 58.93229 457.875 58.229164Q457.70312 59.05729 457.40625 59.86979L456.46875 62.385414ZM461.79688 65.916664L461.79688 59.697914L462.73438 59.697914L462.73438 60.572914Q463.03125 60.104164 463.51562 59.83854Q464.0 59.55729 464.625 59.55729Q465.3125 59.55729 465.75 59.83854Q466.20312 60.11979 466.375 60.635414Q467.125 59.55729 468.29688 59.55729Q469.23438 59.55729 469.71875 60.072914Q470.21875 60.572914 470.21875 61.65104L470.21875 65.916664L469.17188 65.916664L469.17188 61.99479Q469.17188 61.36979 469.0625 61.08854Q468.96875 60.80729 468.70312 60.635414Q468.4375 60.46354 468.0625 60.46354Q467.40625 60.46354 466.96875 60.90104Q466.54688 61.33854 466.54688 62.30729L466.54688 65.916664L465.48438 65.916664L465.48438 61.86979Q465.48438 61.166664 465.21875 60.822914Q464.96875 60.46354 464.39062 60.46354Q463.9375 60.46354 463.5625 60.697914Q463.1875 60.93229 463.01562 61.385414Q462.84375 61.83854 462.84375 62.68229L462.84375 65.916664L461.79688 65.916664ZM472.79688 68.30729L472.79688 59.697914L473.75 59.697914L473.75 60.49479Q474.09375 60.02604 474.51562 59.791664Q474.95312 59.55729 475.5625 59.55729Q476.35938 59.55729 476.96875 59.96354Q477.57812 60.36979 477.875 61.11979Q478.1875 61.86979 478.1875 62.760414Q478.1875 63.71354 477.84375 64.479164Q477.51562 65.24479 476.85938 65.65104Q476.20312 66.05729 475.48438 66.05729Q474.95312 66.05729 474.53125 65.83854Q474.10938 65.604164 473.84375 65.27604L473.84375 68.30729L472.79688 68.30729ZM473.75 62.83854Q473.75 64.041664 474.23438 64.61979Q474.71875 65.18229 475.40625 65.18229Q476.10938 65.18229 476.60938 64.58854Q477.10938 63.99479 477.10938 62.74479Q477.10938 61.55729 476.625 60.979164Q476.14062 60.385414 475.45312 60.385414Q474.78125 60.385414 474.26562 61.010414Q473.75 61.635414 473.75 62.83854ZM479.79688 65.916664L479.79688 57.322914L480.84375 57.322914L480.84375 60.40104Q481.57812 59.55729 482.70312 59.55729Q483.40625 59.55729 483.90625 59.83854Q484.42188 60.104164 484.64062 60.58854Q484.85938 61.05729 484.85938 61.979164L484.85938 65.916664L483.8125 65.916664L483.8125 61.979164Q483.8125 61.18229 483.46875 60.822914Q483.125 60.46354 482.5 60.46354Q482.03125 60.46354 481.60938 60.71354Q481.20312 60.947914 481.01562 61.36979Q480.84375 61.77604 480.84375 62.510414L480.84375 65.916664L479.79688 65.916664ZM486.79688 58.541664L486.79688 57.322914L487.85938 57.322914L487.85938 58.541664L486.79688 58.541664ZM486.79688 65.916664L486.79688 59.697914L487.85938 59.697914L487.85938 65.916664L486.79688 65.916664ZM490.76562 65.916664L489.78125 65.916664L489.78125 57.322914L490.84375 57.322914L490.84375 60.385414Q491.51562 59.55729 492.54688 59.55729Q493.125 59.55729 493.625 59.791664Q494.14062 60.010414 494.46875 60.43229Q494.8125 60.854164 495.0 61.447914Q495.1875 62.041664 495.1875 62.71354Q495.1875 64.30729 494.39062 65.18229Q493.59375 66.05729 492.5 66.05729Q491.39062 66.05729 490.76562 65.135414L490.76562 65.916664ZM490.75 62.760414Q490.75 63.86979 491.0625 64.36979Q491.5625 65.18229 492.40625 65.18229Q493.09375 65.18229 493.59375 64.58854Q494.10938 63.99479 494.10938 62.791664Q494.10938 61.572914 493.625 60.99479Q493.14062 60.416664 492.45312 60.416664Q491.76562 60.416664 491.25 61.02604Q490.75 61.61979 490.75 62.760414ZM496.79688 58.541664L496.79688 57.322914L497.85938 57.322914L497.85938 58.541664L496.79688 58.541664ZM496.79688 65.916664L496.79688 59.697914L497.85938 59.697914L497.85938 65.916664L496.79688 65.916664ZM503.85938 65.15104Q503.26562 65.65104 502.71875 65.854164Q502.1875 66.05729 501.5625 66.05729Q500.53125 66.05729 499.98438 65.55729Q499.4375 65.05729 499.4375 64.27604Q499.4375 63.822914 499.64062 63.447914Q499.84375 63.05729 500.1875 62.83854Q500.53125 62.604164 500.95312 62.49479Q501.25 62.40104 501.89062 62.322914Q503.15625 62.18229 503.76562 61.96354Q503.76562 61.74479 503.76562 61.697914Q503.76562 61.041664 503.46875 60.77604Q503.0625 60.43229 502.26562 60.43229Q501.53125 60.43229 501.17188 60.697914Q500.8125 60.947914 500.64062 61.604164L499.60938 61.46354Q499.75 60.80729 500.07812 60.40104Q500.40625 59.99479 501.01562 59.77604Q501.625 59.55729 502.42188 59.55729Q503.21875 59.55729 503.71875 59.74479Q504.21875 59.93229 504.45312 60.21354Q504.6875 60.49479 504.78125 60.93229Q504.82812 61.197914 504.82812 61.90104L504.82812 63.30729Q504.82812 64.77604 504.89062 65.166664Q504.96875 65.55729 505.17188 65.916664L504.0625 65.916664Q503.90625 65.58854 503.85938 65.15104ZM503.76562 62.791664Q503.1875 63.02604 502.04688 63.197914Q501.39062 63.291664 501.125 63.416664Q500.85938 63.52604 500.70312 63.74479Q500.5625 63.96354 500.5625 64.24479Q500.5625 64.666664 500.875 64.947914Q501.20312 65.229164 501.8125 65.229164Q502.42188 65.229164 502.89062 64.96354Q503.375 64.697914 503.59375 64.229164Q503.76562 63.86979 503.76562 63.18229L503.76562 62.791664ZM506.79688 65.916664L506.79688 59.697914L507.73438 59.697914L507.73438 60.572914Q508.42188 59.55729 509.71875 59.55729Q510.28125 59.55729 510.75 59.760414Q511.23438 59.96354 511.46875 60.291664Q511.70312 60.61979 511.79688 61.05729Q511.84375 61.354164 511.84375 62.08854L511.84375 65.916664L510.79688 65.916664L510.79688 62.135414Q510.79688 61.479164 510.67188 61.166664Q510.54688 60.854164 510.23438 60.666664Q509.92188 60.46354 509.5 60.46354Q508.82812 60.46354 508.32812 60.90104Q507.84375 61.322914 507.84375 62.510414L507.84375 65.916664L506.79688 65.916664ZM513.375 64.05729L514.40625 63.90104Q514.5 64.52604 514.8906 64.854164Q515.2969 65.18229 516.03125 65.18229Q516.75 65.18229 517.09375 64.90104Q517.4531 64.604164 517.4531 64.197914Q517.4531 63.83854 517.1406 63.635414Q516.9219 63.49479 516.0625 63.27604Q514.90625 62.979164 514.4531 62.77604Q514.0156 62.55729 513.78125 62.18229Q513.5469 61.80729 513.5469 61.33854Q513.5469 60.93229 513.7344 60.572914Q513.9219 60.21354 514.25 59.979164Q514.5 59.80729 514.9219 59.68229Q515.34375 59.55729 515.84375 59.55729Q516.5625 59.55729 517.1094 59.77604Q517.6719 59.979164 517.9375 60.33854Q518.2031 60.697914 518.2969 61.291664L517.2656 61.43229Q517.2031 60.96354 516.8594 60.697914Q516.53125 60.416664 515.90625 60.416664Q515.1875 60.416664 514.875 60.666664Q514.5625 60.90104 514.5625 61.229164Q514.5625 61.43229 514.6875 61.58854Q514.8281 61.760414 515.09375 61.86979Q515.25 61.93229 516.03125 62.135414Q517.15625 62.447914 517.59375 62.635414Q518.03125 62.822914 518.28125 63.18229Q518.53125 63.541664 518.53125 64.08854Q518.53125 64.61979 518.21875 65.08854Q517.9219 65.541664 517.34375 65.80729Q516.7656 66.05729 516.03125 66.05729Q514.8125 66.05729 514.1719 65.55729Q513.5469 65.041664 513.375 64.05729Z" fill-rule="nonzero"/><path fill="#757575" d="M19.95625 28.3L19.471874 25.58125L19.471874 23.2375L21.471874 23.2375L21.471874 25.58125L21.034374 28.3L19.95625 28.3ZM23.190624 28.3L22.70625 25.58125L22.70625 23.2375L24.70625 23.2375L24.70625 25.58125L24.2375 28.3L23.190624 28.3ZM27.128124 37.55L27.128124 23.2375L33.471874 23.2375Q35.378124 23.2375 36.378124 23.628124Q37.378124 24.003124 37.971874 24.9875Q38.565624 25.95625 38.565624 27.14375Q38.565624 28.659374 37.58125 29.70625Q36.596874 30.753124 34.534374 31.034374Q35.284374 31.39375 35.675 31.753124Q36.503124 32.503124 37.253124 33.659374L39.7375 37.55L37.3625 37.55L35.45625 34.565624Q34.628124 33.284374 34.096874 32.596874Q33.565624 31.909374 33.128124 31.64375Q32.70625 31.3625 32.26875 31.253124Q31.940624 31.190624 31.221874 31.190624L29.01875 31.190624L29.01875 37.55L27.128124 37.55ZM29.01875 29.55L33.096874 29.55Q34.39375 29.55 35.1125 29.284374Q35.846874 29.01875 36.221874 28.425Q36.6125 27.83125 36.6125 27.14375Q36.6125 26.128124 35.878124 25.471874Q35.14375 24.815624 33.55 24.815624L29.01875 24.815624L29.01875 29.55ZM47.971874 34.20625L49.784374 34.440624Q49.3625 36.01875 48.190624 36.909374Q47.034374 37.784374 45.221874 37.784374Q42.95625 37.784374 41.6125 36.39375Q40.284374 34.9875 40.284374 32.45625Q40.284374 29.83125 41.628124 28.39375Q42.971874 26.940624 45.128124 26.940624Q47.20625 26.940624 48.51875 28.3625Q49.846874 29.76875 49.846874 32.346874Q49.846874 32.503124 49.83125 32.815624L42.096874 32.815624Q42.190624 34.51875 43.065624 35.425Q43.940624 36.33125 45.2375 36.33125Q46.20625 36.33125 46.878124 35.83125Q47.565624 35.315624 47.971874 34.20625ZM42.190624 31.3625L47.9875 31.3625Q47.878124 30.065624 47.33125 29.409374Q46.4875 28.39375 45.14375 28.39375Q43.940624 28.39375 43.1125 29.20625Q42.284374 30.003124 42.190624 31.3625ZM58.64375 36.26875Q57.659374 37.096874 56.753124 37.440624Q55.846874 37.784374 54.815624 37.784374Q53.1125 37.784374 52.190624 36.95625Q51.26875 36.1125 51.26875 34.815624Q51.26875 34.05 51.6125 33.425Q51.971874 32.8 52.534374 32.425Q53.096874 32.034374 53.8 31.83125Q54.315624 31.70625 55.3625 31.565624Q57.4875 31.315624 58.4875 30.971874Q58.503124 30.6125 58.503124 30.503124Q58.503124 29.440624 58.003124 28.9875Q57.33125 28.39375 56.003124 28.39375Q54.753124 28.39375 54.159374 28.83125Q53.58125 29.26875 53.3 30.378124L51.58125 30.14375Q51.815624 29.034374 52.346874 28.3625Q52.878124 27.675 53.89375 27.315624Q54.909374 26.940624 56.253124 26.940624Q57.58125 26.940624 58.409374 27.253124Q59.2375 27.565624 59.628124 28.05Q60.01875 28.51875 60.175 29.2375Q60.26875 29.690624 60.26875 30.8625L60.26875 33.20625Q60.26875 35.659374 60.378124 36.315624Q60.4875 36.95625 60.83125 37.55L58.9875 37.55Q58.721874 37.003124 58.64375 36.26875ZM58.4875 32.346874Q57.534374 32.7375 55.6125 33.003124Q54.534374 33.159374 54.08125 33.3625Q53.64375 33.55 53.39375 33.925Q53.14375 34.3 53.14375 34.76875Q53.14375 35.471874 53.675 35.940624Q54.20625 36.409374 55.2375 36.409374Q56.253124 36.409374 57.034374 35.971874Q57.83125 35.51875 58.20625 34.753124Q58.4875 34.14375 58.4875 32.9875L58.4875 32.346874ZM62.83125 37.55L62.83125 23.2375L64.58125 23.2375L64.58125 37.55L62.83125 37.55ZM66.95625 28.3L66.47188 25.58125L66.47188 23.2375L68.47188 23.2375L68.47188 25.58125L68.03438 28.3L66.95625 28.3ZM70.19063 28.3L69.70625 25.58125L69.70625 23.2375L71.70625 23.2375L71.70625 25.58125L71.2375 28.3L70.19063 28.3ZM86.64375 33.753124L88.3625 33.971874Q88.08125 35.76875 86.90938 36.784374Q85.75313 37.784374 84.05 37.784374Q81.925 37.784374 80.62813 36.39375Q79.33125 35.003124 79.33125 32.409374Q79.33125 30.721874 79.87813 29.471874Q80.44063 28.20625 81.58125 27.58125Q82.72188 26.940624 84.06563 26.940624Q85.75313 26.940624 86.81563 27.8Q87.89375 28.659374 88.20625 30.221874L86.4875 30.4875Q86.25313 29.440624 85.62813 28.925Q85.00313 28.39375 84.12813 28.39375Q82.8 28.39375 81.97188 29.346874Q81.14375 30.3 81.14375 32.346874Q81.14375 34.440624 81.94063 35.39375Q82.7375 36.33125 84.03438 36.33125Q85.06563 36.33125 85.75313 35.70625Q86.45625 35.065624 86.64375 33.753124ZM89.22188 32.3625Q89.22188 29.4875 90.81563 28.096874Q92.15938 26.940624 94.08125 26.940624Q96.22188 26.940624 97.56563 28.346874Q98.925 29.753124 98.925 32.221874Q98.925 34.221874 98.33125 35.378124Q97.7375 36.51875 96.58125 37.159374Q95.44063 37.784374 94.08125 37.784374Q91.89375 37.784374 90.55 36.39375Q89.22188 34.9875 89.22188 32.3625ZM91.01875 32.3625Q91.01875 34.3625 91.87813 35.346874Q92.75313 36.33125 94.08125 36.33125Q95.39375 36.33125 96.25313 35.346874Q97.12813 34.346874 97.12813 32.3Q97.12813 30.378124 96.25313 29.39375Q95.37813 28.39375 94.08125 28.39375Q92.75313 28.39375 91.87813 29.39375Q91.01875 30.378124 91.01875 32.3625ZM100.8625 37.55L100.8625 27.175L102.44063 27.175L102.44063 28.628124Q102.925 27.878124 103.7375 27.409374Q104.55 26.940624 105.58125 26.940624Q106.7375 26.940624 107.47188 27.425Q108.20625 27.89375 108.51875 28.753124Q109.75313 26.940624 111.72188 26.940624Q113.26875 26.940624 114.09688 27.8Q114.925 28.659374 114.925 30.425L114.925 37.55L113.175 37.55L113.175 31.01875Q113.175 29.95625 113.00313 29.503124Q112.83125 29.034374 112.37813 28.753124Q111.94063 28.471874 111.33125 28.471874Q110.2375 28.471874 109.50313 29.20625Q108.78438 29.925 108.78438 31.51875L108.78438 37.55L107.03438 37.55L107.03438 30.815624Q107.03438 29.64375 106.59688 29.065624Q106.175 28.471874 105.19063 28.471874Q104.45625 28.471874 103.81563 28.8625Q103.19063 29.253124 102.90938 30.003124Q102.62813 30.753124 102.62813 32.175L102.62813 37.55L100.8625 37.55ZM116.8625 41.51875L116.8625 27.175L118.47188 27.175L118.47188 28.51875Q119.03438 27.7375 119.7375 27.346874Q120.45625 26.940624 121.47188 26.940624Q122.8 26.940624 123.81563 27.628124Q124.83125 28.315624 125.34688 29.565624Q125.87813 30.8 125.87813 32.284374Q125.87813 33.878124 125.3 35.159374Q124.7375 36.425 123.64375 37.1125Q122.55 37.784374 121.34688 37.784374Q120.47188 37.784374 119.76875 37.409374Q119.08125 37.034374 118.62813 36.471874L118.62813 41.51875L116.8625 41.51875ZM118.45625 32.425Q118.45625 34.425 119.26875 35.378124Q120.08125 36.33125 121.2375 36.33125Q122.40938 36.33125 123.2375 35.346874Q124.08125 34.3625 124.08125 32.26875Q124.08125 30.3 123.25313 29.315624Q122.44063 28.315624 121.31563 28.315624Q120.19063 28.315624 119.31563 29.378124Q118.45625 30.425 118.45625 32.425ZM127.22188 32.3625Q127.22188 29.4875 128.81563 28.096874Q130.15938 26.940624 132.08125 26.940624Q134.22188 26.940624 135.56563 28.346874Q136.925 29.753124 136.925 32.221874Q136.925 34.221874 136.33125 35.378124Q135.7375 36.51875 134.58125 37.159374Q133.44063 37.784374 132.08125 37.784374Q129.89375 37.784374 128.55 36.39375Q127.22188 34.9875 127.22188 32.3625ZM129.01875 32.3625Q129.01875 34.3625 129.87813 35.346874Q130.75313 36.33125 132.08125 36.33125Q133.39375 36.33125 134.25313 35.346874Q135.12813 34.346874 135.12813 32.3Q135.12813 30.378124 134.25313 29.39375Q133.37813 28.39375 132.08125 28.39375Q130.75313 28.39375 129.87813 29.39375Q129.01875 30.378124 129.01875 32.3625ZM138.15938 34.45625L139.90938 34.175Q140.05 35.221874 140.72188 35.784374Q141.39375 36.33125 142.59688 36.33125Q143.8 36.33125 144.37813 35.846874Q144.97188 35.346874 144.97188 34.690624Q144.97188 34.096874 144.45625 33.753124Q144.09688 33.51875 142.65938 33.159374Q140.72188 32.659374 139.97188 32.315624Q139.2375 31.95625 138.84688 31.33125Q138.45625 30.690624 138.45625 29.925Q138.45625 29.2375 138.76875 28.64375Q139.09688 28.05 139.64375 27.659374Q140.05 27.3625 140.75313 27.159374Q141.47188 26.940624 142.28438 26.940624Q143.50313 26.940624 144.425 27.3Q145.34688 27.64375 145.78438 28.253124Q146.22188 28.846874 146.39375 29.846874L144.675 30.08125Q144.55 29.284374 143.9875 28.846874Q143.425 28.39375 142.40938 28.39375Q141.19063 28.39375 140.675 28.8Q140.15938 29.190624 140.15938 29.721874Q140.15938 30.065624 140.37813 30.346874Q140.58125 30.628124 141.05 30.815624Q141.31563 30.909374 142.59688 31.253124Q144.47188 31.753124 145.20625 32.08125Q145.94063 32.39375 146.3625 33.003124Q146.78438 33.596874 146.78438 34.503124Q146.78438 35.378124 146.26875 36.159374Q145.75313 36.940624 144.78438 37.3625Q143.81563 37.784374 142.59688 37.784374Q140.58125 37.784374 139.51875 36.940624Q138.45625 36.096874 138.15938 34.45625ZM148.87813 25.253124L148.87813 23.2375L150.64375 23.2375L150.64375 25.253124L148.87813 25.253124ZM148.87813 37.55L148.87813 27.175L150.64375 27.175L150.64375 37.55L148.87813 37.55ZM156.70625 35.971874L156.95625 37.534374Q156.22188 37.690624 155.62813 37.690624Q154.675 37.690624 154.14375 37.39375Q153.62813 37.08125 153.40938 36.596874Q153.19063 36.096874 153.19063 34.51875L153.19063 28.55L151.90938 28.55L151.90938 27.175L153.19063 27.175L153.19063 24.6125L154.94063 23.55L154.94063 27.175L156.70625 27.175L156.70625 28.55L154.94063 28.55L154.94063 34.6125Q154.94063 35.3625 155.03438 35.58125Q155.12813 35.784374 155.33125 35.925Q155.55 36.05 155.94063 36.05Q156.22188 36.05 156.70625 35.971874ZM158.87813 25.253124L158.87813 23.2375L160.64375 23.2375L160.64375 25.253124L158.87813 25.253124ZM158.87813 37.55L158.87813 27.175L160.64375 27.175L160.64375 37.55L158.87813 37.55ZM162.22188 32.3625Q162.22188 29.4875 163.81563 28.096874Q165.15938 26.940624 167.08125 26.940624Q169.22188 26.940624 170.56563 28.346874Q171.925 29.753124 171.925 32.221874Q171.925 34.221874 171.33125 35.378124Q170.7375 36.51875 169.58125 37.159374Q168.44063 37.784374 167.08125 37.784374Q164.89375 37.784374 163.55 36.39375Q162.22188 34.9875 162.22188 32.3625ZM164.01875 32.3625Q164.01875 34.3625 164.87813 35.346874Q165.75313 36.33125 167.08125 36.33125Q168.39375 36.33125 169.25313 35.346874Q170.12813 34.346874 170.12813 32.3Q170.12813 30.378124 169.25313 29.39375Q168.37813 28.39375 167.08125 28.39375Q165.75313 28.39375 164.87813 29.39375Q164.01875 30.378124 164.01875 32.3625ZM173.8625 37.55L173.8625 27.175L175.45625 27.175L175.45625 28.659374Q176.59688 26.940624 178.75313 26.940624Q179.69063 26.940624 180.47188 27.284374Q181.26875 27.6125 181.65938 28.159374Q182.05 28.70625 182.20625 29.45625Q182.3 29.95625 182.3 31.175L182.3 37.55L180.53438 37.55L180.53438 31.2375Q180.53438 30.159374 180.33125 29.628124Q180.12813 29.096874 179.59688 28.784374Q179.08125 28.471874 178.37813 28.471874Q177.25313 28.471874 176.44063 29.190624Q175.62813 29.89375 175.62813 31.878124L175.62813 37.55L173.8625 37.55ZM189.22188 32.3625Q189.22188 29.4875 190.81563 28.096874Q192.15938 26.940624 194.08125 26.940624Q196.22188 26.940624 197.56563 28.346874Q198.925 29.753124 198.925 32.221874Q198.925 34.221874 198.33125 35.378124Q197.7375 36.51875 196.58125 37.159374Q195.44063 37.784374 194.08125 37.784374Q191.89375 37.784374 190.55 36.39375Q189.22188 34.9875 189.22188 32.3625ZM191.01875 32.3625Q191.01875 34.3625 191.87813 35.346874Q192.75313 36.33125 194.08125 36.33125Q195.39375 36.33125 196.25313 35.346874Q197.12813 34.346874 197.12813 32.3Q197.12813 30.378124 196.25313 29.39375Q195.37813 28.39375 194.08125 28.39375Q192.75313 28.39375 191.87813 29.39375Q191.01875 30.378124 191.01875 32.3625ZM201.28438 37.55L201.28438 28.55L199.7375 28.55L199.7375 27.175L201.28438 27.175L201.28438 26.08125Q201.28438 25.034374 201.47188 24.51875Q201.72188 23.83125 202.3625 23.409374Q203.00313 22.9875 204.15938 22.9875Q204.90938 22.9875 205.8 23.159374L205.53438 24.690624Q204.9875 24.596874 204.50313 24.596874Q203.70625 24.596874 203.3625 24.940624Q203.03438 25.284374 203.03438 26.221874L203.03438 27.175L205.06563 27.175L205.06563 28.55L203.03438 28.55L203.03438 37.55L201.28438 37.55ZM219.64375 33.753124L221.3625 33.971874Q221.08125 35.76875 219.90938 36.784374Q218.75313 37.784374 217.05 37.784374Q214.925 37.784374 213.62813 36.39375Q212.33125 35.003124 212.33125 32.409374Q212.33125 30.721874 212.87813 29.471874Q213.44063 28.20625 214.58125 27.58125Q215.72188 26.940624 217.06563 26.940624Q218.75313 26.940624 219.81563 27.8Q220.89375 28.659374 221.20625 30.221874L219.4875 30.4875Q219.25313 29.440624 218.62813 28.925Q218.00313 28.39375 217.12813 28.39375Q215.8 28.39375 214.97188 29.346874Q214.14375 30.3 214.14375 32.346874Q214.14375 34.440624 214.94063 35.39375Q215.7375 36.33125 217.03438 36.33125Q218.06563 36.33125 218.75313 35.70625Q219.45625 35.065624 219.64375 33.753124ZM222.83125 37.55L222.83125 23.2375L224.58125 23.2375L224.58125 37.55L222.83125 37.55ZM233.65938 37.55L233.65938 36.01875Q232.45625 37.784374 230.37813 37.784374Q229.45625 37.784374 228.65938 37.440624Q227.8625 37.08125 227.47188 36.55Q227.09688 36.01875 226.94063 35.2375Q226.83125 34.721874 226.83125 33.596874L226.83125 27.175L228.58125 27.175L228.58125 32.925Q228.58125 34.3 228.69063 34.784374Q228.8625 35.471874 229.39375 35.878124Q229.94063 36.26875 230.72188 36.26875Q231.51875 36.26875 232.20625 35.8625Q232.90938 35.45625 233.19063 34.76875Q233.4875 34.065624 233.4875 32.7375L233.4875 27.175L235.2375 27.175L235.2375 37.55L233.65938 37.55ZM236.15938 34.45625L237.90938 34.175Q238.05 35.221874 238.72188 35.784374Q239.39375 36.33125 240.59688 36.33125Q241.8 36.33125 242.37813 35.846874Q242.97188 35.346874 242.97188 34.690624Q242.97188 34.096874 242.45625 33.753124Q242.09688 33.51875 240.65938 33.159374Q238.72188 32.659374 237.97188 32.315624Q237.2375 31.95625 236.84688 31.33125Q236.45625 30.690624 236.45625 29.925Q236.45625 29.2375 236.76875 28.64375Q237.09688 28.05 237.64375 27.659374Q238.05 27.3625 238.75313 27.159374Q239.47188 26.940624 240.28438 26.940624Q241.50313 26.940624 242.425 27.3Q243.34688 27.64375 243.78438 28.253124Q244.22188 28.846874 244.39375 29.846874L242.675 30.08125Q242.55 29.284374 241.9875 28.846874Q241.425 28.39375 240.40938 28.39375Q239.19063 28.39375 238.675 28.8Q238.15938 29.190624 238.15938 29.721874Q238.15938 30.065624 238.37813 30.346874Q238.58125 30.628124 239.05 30.815624Q239.31563 30.909374 240.59688 31.253124Q242.47188 31.753124 243.20625 32.08125Q243.94063 32.39375 244.3625 33.003124Q244.78438 33.596874 244.78438 34.503124Q244.78438 35.378124 244.26875 36.159374Q243.75313 36.940624 242.78438 37.3625Q241.81563 37.784374 240.59688 37.784374Q238.58125 37.784374 237.51875 36.940624Q236.45625 36.096874 236.15938 34.45625ZM250.70625 35.971874L250.95625 37.534374Q250.22188 37.690624 249.62813 37.690624Q248.675 37.690624 248.14375 37.39375Q247.62813 37.08125 247.40938 36.596874Q247.19063 36.096874 247.19063 34.51875L247.19063 28.55L245.90938 28.55L245.90938 27.175L247.19063 27.175L247.19063 24.6125L248.94063 23.55L248.94063 27.175L250.70625 27.175L250.70625 28.55L248.94063 28.55L248.94063 34.6125Q248.94063 35.3625 249.03438 35.58125Q249.12813 35.784374 249.33125 35.925Q249.55 36.05 249.94063 36.05Q250.22188 36.05 250.70625 35.971874ZM259.97186 34.20625L261.78436 34.440624Q261.3625 36.01875 260.1906 36.909374Q259.03436 37.784374 257.22186 37.784374Q254.95625 37.784374 253.6125 36.39375Q252.28438 34.9875 252.28438 32.45625Q252.28438 29.83125 253.62813 28.39375Q254.97188 26.940624 257.1281 26.940624Q259.20624 26.940624 260.51874 28.3625Q261.84686 29.76875 261.84686 32.346874Q261.84686 32.503124 261.83124 32.815624L254.09688 32.815624Q254.19063 34.51875 255.06563 35.425Q255.94063 36.33125 257.2375 36.33125Q258.20624 36.33125 258.8781 35.83125Q259.5656 35.315624 259.97186 34.20625ZM254.19063 31.3625L259.9875 31.3625Q259.8781 30.065624 259.33124 29.409374Q258.4875 28.39375 257.14374 28.39375Q255.94063 28.39375 255.1125 29.20625Q254.28438 30.003124 254.19063 31.3625ZM263.84686 37.55L263.84686 27.175L265.425 27.175L265.425 28.753124Q266.03436 27.64375 266.55 27.3Q267.0656 26.940624 267.675 26.940624Q268.5656 26.940624 269.4875 27.503124L268.8781 29.14375Q268.2375 28.753124 267.59686 28.753124Q267.01874 28.753124 266.55 29.1125Q266.09686 29.45625 265.89374 30.065624Q265.6125 31.003124 265.6125 32.1125L265.6125 37.55L263.84686 37.55ZM270.15936 34.45625L271.90936 34.175Q272.05 35.221874 272.72186 35.784374Q273.39374 36.33125 274.59686 36.33125Q275.8 36.33125 276.3781 35.846874Q276.97186 35.346874 276.97186 34.690624Q276.97186 34.096874 276.45624 33.753124Q276.09686 33.51875 274.65936 33.159374Q272.72186 32.659374 271.97186 32.315624Q271.2375 31.95625 270.84686 31.33125Q270.45624 30.690624 270.45624 29.925Q270.45624 29.2375 270.76874 28.64375Q271.09686 28.05 271.64374 27.659374Q272.05 27.3625 272.7531 27.159374Q273.47186 26.940624 274.28436 26.940624Q275.5031 26.940624 276.425 27.3Q277.34686 27.64375 277.78436 28.253124Q278.22186 28.846874 278.39374 29.846874L276.675 30.08125Q276.55 29.284374 275.9875 28.846874Q275.425 28.39375 274.40936 28.39375Q273.1906 28.39375 272.675 28.8Q272.15936 29.190624 272.15936 29.721874Q272.15936 30.065624 272.3781 30.346874Q272.58124 30.628124 273.05 30.815624Q273.3156 30.909374 274.59686 31.253124Q276.47186 31.753124 277.20624 32.08125Q277.9406 32.39375 278.3625 33.003124Q278.78436 33.596874 278.78436 34.503124Q278.78436 35.378124 278.26874 36.159374Q277.7531 36.940624 276.78436 37.3625Q275.8156 37.784374 274.59686 37.784374Q272.58124 37.784374 271.51874 36.940624Q270.45624 36.096874 270.15936 34.45625ZM286.22186 32.3625Q286.22186 29.4875 287.8156 28.096874Q289.15936 26.940624 291.08124 26.940624Q293.22186 26.940624 294.5656 28.346874Q295.925 29.753124 295.925 32.221874Q295.925 34.221874 295.33124 35.378124Q294.7375 36.51875 293.58124 37.159374Q292.4406 37.784374 291.08124 37.784374Q288.89374 37.784374 287.55 36.39375Q286.22186 34.9875 286.22186 32.3625ZM288.01874 32.3625Q288.01874 34.3625 288.8781 35.346874Q289.7531 36.33125 291.08124 36.33125Q292.39374 36.33125 293.2531 35.346874Q294.1281 34.346874 294.1281 32.3Q294.1281 30.378124 293.2531 29.39375Q292.3781 28.39375 291.08124 28.39375Q289.7531 28.39375 288.8781 29.39375Q288.01874 30.378124 288.01874 32.3625ZM299.4875 37.55L297.8625 37.55L297.8625 23.2375L299.6125 23.2375L299.6125 28.346874Q300.7375 26.940624 302.45624 26.940624Q303.40936 26.940624 304.26874 27.33125Q305.1281 27.721874 305.675 28.425Q306.22186 29.1125 306.53436 30.096874Q306.84686 31.08125 306.84686 32.20625Q306.84686 34.878124 305.53436 36.33125Q304.22186 37.784374 302.3781 37.784374Q300.53436 37.784374 299.4875 36.253124L299.4875 37.55ZM299.47186 32.284374Q299.47186 34.14375 299.97186 34.9875Q300.8156 36.33125 302.22186 36.33125Q303.3781 36.33125 304.20624 35.33125Q305.05 34.33125 305.05 32.346874Q305.05 30.315624 304.2375 29.3625Q303.4406 28.39375 302.3 28.39375Q301.14374 28.39375 300.3 29.39375Q299.47186 30.39375 299.47186 32.284374ZM312.70624 35.971874L312.95624 37.534374Q312.22186 37.690624 311.6281 37.690624Q310.675 37.690624 310.14374 37.39375Q309.6281 37.08125 309.40936 36.596874Q309.1906 36.096874 309.1906 34.51875L309.1906 28.55L307.90936 28.55L307.90936 27.175L309.1906 27.175L309.1906 24.6125L310.9406 23.55L310.9406 27.175L312.70624 27.175L312.70624 28.55L310.9406 28.55L310.9406 34.6125Q310.9406 35.3625 311.03436 35.58125Q311.1281 35.784374 311.33124 35.925Q311.55 36.05 311.9406 36.05Q312.22186 36.05 312.70624 35.971874ZM321.64374 36.26875Q320.65936 37.096874 319.7531 37.440624Q318.84686 37.784374 317.8156 37.784374Q316.1125 37.784374 315.1906 36.95625Q314.26874 36.1125 314.26874 34.815624Q314.26874 34.05 314.6125 33.425Q314.97186 32.8 315.53436 32.425Q316.09686 32.034374 316.8 31.83125Q317.3156 31.70625 318.3625 31.565624Q320.4875 31.315624 321.4875 30.971874Q321.5031 30.6125 321.5031 30.503124Q321.5031 29.440624 321.0031 28.9875Q320.33124 28.39375 319.0031 28.39375Q317.7531 28.39375 317.15936 28.83125Q316.58124 29.26875 316.3 30.378124L314.58124 30.14375Q314.8156 29.034374 315.34686 28.3625Q315.8781 27.675 316.89374 27.315624Q317.90936 26.940624 319.2531 26.940624Q320.58124 26.940624 321.40936 27.253124Q322.2375 27.565624 322.6281 28.05Q323.01874 28.51875 323.175 29.2375Q323.26874 29.690624 323.26874 30.8625L323.26874 33.20625Q323.26874 35.659374 323.3781 36.315624Q323.4875 36.95625 323.83124 37.55L321.9875 37.55Q321.72186 37.003124 321.64374 36.26875ZM321.4875 32.346874Q320.53436 32.7375 318.6125 33.003124Q317.53436 33.159374 317.08124 33.3625Q316.64374 33.55 316.39374 33.925Q316.14374 34.3 316.14374 34.76875Q316.14374 35.471874 316.675 35.940624Q317.20624 36.409374 318.2375 36.409374Q319.2531 36.409374 320.03436 35.971874Q320.83124 35.51875 321.20624 34.753124Q321.4875 34.14375 321.4875 32.9875L321.4875 32.346874ZM325.8781 25.253124L325.8781 23.2375L327.64374 23.2375L327.64374 25.253124L325.8781 25.253124ZM325.8781 37.55L325.8781 27.175L327.64374 27.175L327.64374 37.55L325.8781 37.55ZM329.8625 37.55L329.8625 27.175L331.45624 27.175L331.45624 28.659374Q332.59686 26.940624 334.7531 26.940624Q335.6906 26.940624 336.47186 27.284374Q337.26874 27.6125 337.65936 28.159374Q338.05 28.70625 338.20624 29.45625Q338.3 29.95625 338.3 31.175L338.3 37.55L336.53436 37.55L336.53436 31.2375Q336.53436 30.159374 336.33124 29.628124Q336.1281 29.096874 335.59686 28.784374Q335.08124 28.471874 334.3781 28.471874Q333.2531 28.471874 332.4406 29.190624Q331.6281 29.89375 331.6281 31.878124L331.6281 37.55L329.8625 37.55ZM346.97186 34.20625L348.78436 34.440624Q348.3625 36.01875 347.1906 36.909374Q346.03436 37.784374 344.22186 37.784374Q341.95624 37.784374 340.6125 36.39375Q339.28436 34.9875 339.28436 32.45625Q339.28436 29.83125 340.6281 28.39375Q341.97186 26.940624 344.1281 26.940624Q346.20624 26.940624 347.51874 28.3625Q348.84686 29.76875 348.84686 32.346874Q348.84686 32.503124 348.83124 32.815624L341.09686 32.815624Q341.1906 34.51875 342.0656 35.425Q342.9406 36.33125 344.2375 36.33125Q345.20624 36.33125 345.8781 35.83125Q346.5656 35.315624 346.97186 34.20625ZM341.1906 31.3625L346.9875 31.3625Q346.8781 30.065624 346.33124 29.409374Q345.4875 28.39375 344.14374 28.39375Q342.9406 28.39375 342.1125 29.20625Q341.28436 30.003124 341.1906 31.3625ZM357.59686 37.55L357.59686 36.2375Q356.6125 37.784374 354.6906 37.784374Q353.45624 37.784374 352.40936 37.096874Q351.3781 36.409374 350.8 35.190624Q350.2375 33.971874 350.2375 32.378124Q350.2375 30.815624 350.7531 29.55Q351.26874 28.284374 352.3 27.6125Q353.34686 26.940624 354.6125 26.940624Q355.55 26.940624 356.28436 27.346874Q357.01874 27.7375 357.4875 28.3625L357.4875 23.2375L359.22186 23.2375L359.22186 37.55L357.59686 37.55ZM352.03436 32.378124Q352.03436 34.3625 352.8781 35.346874Q353.72186 36.33125 354.8625 36.33125Q356.01874 36.33125 356.8156 35.39375Q357.6281 34.45625 357.6281 32.51875Q357.6281 30.39375 356.8 29.39375Q355.9875 28.39375 354.78436 28.39375Q353.6125 28.39375 352.8156 29.3625Q352.03436 30.315624 352.03436 32.378124ZM368.28436 37.55L368.28436 28.55L366.7375 28.55L366.7375 27.175L368.28436 27.175L368.28436 26.08125Q368.28436 25.034374 368.47186 24.51875Q368.72186 23.83125 369.3625 23.409374Q370.0031 22.9875 371.15936 22.9875Q371.90936 22.9875 372.8 23.159374L372.53436 24.690624Q371.9875 24.596874 371.5031 24.596874Q370.70624 24.596874 370.3625 24.940624Q370.03436 25.284374 370.03436 26.221874L370.03436 27.175L372.0656 27.175L372.0656 28.55L370.03436 28.55L370.03436 37.55L368.28436 37.55ZM373.84686 37.55L373.84686 27.175L375.425 27.175L375.425 28.753124Q376.03436 27.64375 376.55 27.3Q377.0656 26.940624 377.675 26.940624Q378.5656 26.940624 379.4875 27.503124L378.8781 29.14375Q378.2375 28.753124 377.59686 28.753124Q377.01874 28.753124 376.55 29.1125Q376.09686 29.45625 375.89374 30.065624Q375.6125 31.003124 375.6125 32.1125L375.6125 37.55L373.84686 37.55ZM380.22186 32.3625Q380.22186 29.4875 381.8156 28.096874Q383.15936 26.940624 385.08124 26.940624Q387.22186 26.940624 388.5656 28.346874Q389.925 29.753124 389.925 32.221874Q389.925 34.221874 389.33124 35.378124Q388.7375 36.51875 387.58124 37.159374Q386.4406 37.784374 385.08124 37.784374Q382.89374 37.784374 381.55 36.39375Q380.22186 34.9875 380.22186 32.3625ZM382.01874 32.3625Q382.01874 34.3625 382.8781 35.346874Q383.7531 36.33125 385.08124 36.33125Q386.39374 36.33125 387.2531 35.346874Q388.1281 34.346874 388.1281 32.3Q388.1281 30.378124 387.2531 29.39375Q386.3781 28.39375 385.08124 28.39375Q383.7531 28.39375 382.8781 29.39375Q382.01874 30.378124 382.01874 32.3625ZM391.8625 37.55L391.8625 27.175L393.4406 27.175L393.4406 28.628124Q393.925 27.878124 394.7375 27.409374Q395.55 26.940624 396.58124 26.940624Q397.7375 26.940624 398.47186 27.425Q399.20624 27.89375 399.51874 28.753124Q400.7531 26.940624 402.72186 26.940624Q404.26874 26.940624 405.09686 27.8Q405.925 28.659374 405.925 30.425L405.925 37.55L404.175 37.55L404.175 31.01875Q404.175 29.95625 404.0031 29.503124Q403.83124 29.034374 403.3781 28.753124Q402.9406 28.471874 402.33124 28.471874Q401.2375 28.471874 400.5031 29.20625Q399.78436 29.925 399.78436 31.51875L399.78436 37.55L398.03436 37.55L398.03436 30.815624Q398.03436 29.64375 397.59686 29.065624Q397.175 28.471874 396.1906 28.471874Q395.45624 28.471874 394.8156 28.8625Q394.1906 29.253124 393.90936 30.003124Q393.6281 30.753124 393.6281 32.175L393.6281 37.55L391.8625 37.55ZM413.15936 34.45625L414.90936 34.175Q415.05 35.221874 415.72186 35.784374Q416.39374 36.33125 417.59686 36.33125Q418.8 36.33125 419.3781 35.846874Q419.97186 35.346874 419.97186 34.690624Q419.97186 34.096874 419.45624 33.753124Q419.09686 33.51875 417.65936 33.159374Q415.72186 32.659374 414.97186 32.315624Q414.2375 31.95625 413.84686 31.33125Q413.45624 30.690624 413.45624 29.925Q413.45624 29.2375 413.76874 28.64375Q414.09686 28.05 414.64374 27.659374Q415.05 27.3625 415.7531 27.159374Q416.47186 26.940624 417.28436 26.940624Q418.5031 26.940624 419.425 27.3Q420.34686 27.64375 420.78436 28.253124Q421.22186 28.846874 421.39374 29.846874L419.675 30.08125Q419.55 29.284374 418.9875 28.846874Q418.425 28.39375 417.40936 28.39375Q416.1906 28.39375 415.675 28.8Q415.15936 29.190624 415.15936 29.721874Q415.15936 30.065624 415.3781 30.346874Q415.58124 30.628124 416.05 30.815624Q416.3156 30.909374 417.59686 31.253124Q419.47186 31.753124 420.20624 32.08125Q420.9406 32.39375 421.3625 33.003124Q421.78436 33.596874 421.78436 34.503124Q421.78436 35.378124 421.26874 36.159374Q420.7531 36.940624 419.78436 37.3625Q418.8156 37.784374 417.59686 37.784374Q415.58124 37.784374 414.51874 36.940624Q413.45624 36.096874 413.15936 34.45625ZM423.8781 37.55L423.8781 23.2375L425.64374 23.2375L425.64374 31.39375L429.8 27.175L432.0656 27.175L428.1125 31.01875L432.47186 37.55L430.3 37.55L426.8781 32.253124L425.64374 33.440624L425.64374 37.55L423.8781 37.55ZM433.83124 37.55L433.83124 23.2375L435.58124 23.2375L435.58124 37.55L433.83124 37.55ZM444.97186 34.20625L446.78436 34.440624Q446.3625 36.01875 445.1906 36.909374Q444.03436 37.784374 442.22186 37.784374Q439.95624 37.784374 438.6125 36.39375Q437.28436 34.9875 437.28436 32.45625Q437.28436 29.83125 438.6281 28.39375Q439.97186 26.940624 442.1281 26.940624Q444.20624 26.940624 445.51874 28.3625Q446.84686 29.76875 446.84686 32.346874Q446.84686 32.503124 446.83124 32.815624L439.09686 32.815624Q439.1906 34.51875 440.0656 35.425Q440.9406 36.33125 442.2375 36.33125Q443.20624 36.33125 443.8781 35.83125Q444.5656 35.315624 444.97186 34.20625ZM439.1906 31.3625L444.9875 31.3625Q444.8781 30.065624 444.33124 29.409374Q443.4875 28.39375 442.14374 28.39375Q440.9406 28.39375 440.1125 29.20625Q439.28436 30.003124 439.1906 31.3625ZM455.64374 36.26875Q454.65936 37.096874 453.7531 37.440624Q452.84686 37.784374 451.8156 37.784374Q450.1125 37.784374 449.1906 36.95625Q448.26874 36.1125 448.26874 34.815624Q448.26874 34.05 448.6125 33.425Q448.97186 32.8 449.53436 32.425Q450.09686 32.034374 450.8 31.83125Q451.3156 31.70625 452.3625 31.565624Q454.4875 31.315624 455.4875 30.971874Q455.5031 30.6125 455.5031 30.503124Q455.5031 29.440624 455.0031 28.9875Q454.33124 28.39375 453.0031 28.39375Q451.7531 28.39375 451.15936 28.83125Q450.58124 29.26875 450.3 30.378124L448.58124 30.14375Q448.8156 29.034374 449.34686 28.3625Q449.8781 27.675 450.89374 27.315624Q451.90936 26.940624 453.2531 26.940624Q454.58124 26.940624 455.40936 27.253124Q456.2375 27.565624 456.6281 28.05Q457.01874 28.51875 457.175 29.2375Q457.26874 29.690624 457.26874 30.8625L457.26874 33.20625Q457.26874 35.659374 457.3781 36.315624Q457.4875 36.95625 457.83124 37.55L455.9875 37.55Q455.72186 37.003124 455.64374 36.26875ZM455.4875 32.346874Q454.53436 32.7375 452.6125 33.003124Q451.53436 33.159374 451.08124 33.3625Q450.64374 33.55 450.39374 33.925Q450.14374 34.3 450.14374 34.76875Q450.14374 35.471874 450.675 35.940624Q451.20624 36.409374 452.2375 36.409374Q453.2531 36.409374 454.03436 35.971874Q454.83124 35.51875 455.20624 34.753124Q455.4875 34.14375 455.4875 32.9875L455.4875 32.346874ZM459.84686 37.55L459.84686 27.175L461.425 27.175L461.425 28.753124Q462.03436 27.64375 462.55 27.3Q463.0656 26.940624 463.675 26.940624Q464.5656 26.940624 465.4875 27.503124L464.8781 29.14375Q464.2375 28.753124 463.59686 28.753124Q463.01874 28.753124 462.55 29.1125Q462.09686 29.45625 461.89374 30.065624Q461.6125 31.003124 461.6125 32.1125L461.6125 37.55L459.84686 37.55ZM466.8625 37.55L466.8625 27.175L468.45624 27.175L468.45624 28.659374Q469.59686 26.940624 471.7531 26.940624Q472.6906 26.940624 473.47186 27.284374Q474.26874 27.6125 474.65936 28.159374Q475.05 28.70625 475.20624 29.45625Q475.3 29.95625 475.3 31.175L475.3 37.55L473.53436 37.55L473.53436 31.2375Q473.53436 30.159374 473.33124 29.628124Q473.1281 29.096874 472.59686 28.784374Q472.08124 28.471874 471.3781 28.471874Q470.2531 28.471874 469.4406 29.190624Q468.6281 29.89375 468.6281 31.878124L468.6281 37.55L466.8625 37.55ZM476.8781 28.3L476.425 25.628124L476.425 23.2375L478.425 23.2375L478.425 25.628124L477.95624 28.3L476.8781 28.3ZM480.15936 34.45625L481.90936 34.175Q482.05 35.221874 482.72186 35.784374Q483.39374 36.33125 484.59686 36.33125Q485.8 36.33125 486.3781 35.846874Q486.97186 35.346874 486.97186 34.690624Q486.97186 34.096874 486.45624 33.753124Q486.09686 33.51875 484.65936 33.159374Q482.72186 32.659374 481.97186 32.315624Q481.2375 31.95625 480.84686 31.33125Q480.45624 30.690624 480.45624 29.925Q480.45624 29.2375 480.76874 28.64375Q481.09686 28.05 481.64374 27.659374Q482.05 27.3625 482.7531 27.159374Q483.47186 26.940624 484.28436 26.940624Q485.5031 26.940624 486.425 27.3Q487.34686 27.64375 487.78436 28.253124Q488.22186 28.846874 488.39374 29.846874L486.675 30.08125Q486.55 29.284374 485.9875 28.846874Q485.425 28.39375 484.40936 28.39375Q483.1906 28.39375 482.675 28.8Q482.15936 29.190624 482.15936 29.721874Q482.15936 30.065624 482.3781 30.346874Q482.58124 30.628124 483.05 30.815624Q483.3156 30.909374 484.59686 31.253124Q486.47186 31.753124 487.20624 32.08125Q487.9406 32.39375 488.3625 33.003124Q488.78436 33.596874 488.78436 34.503124Q488.78436 35.378124 488.26874 36.159374Q487.7531 36.940624 486.78436 37.3625Q485.8156 37.784374 484.59686 37.784374Q482.58124 37.784374 481.51874 36.940624Q480.45624 36.096874 480.15936 34.45625ZM496.8781 37.55L496.8781 23.2375L498.64374 23.2375L498.64374 31.39375L502.8 27.175L505.0656 27.175L501.1125 31.01875L505.47186 37.55L503.3 37.55L499.8781 32.253124L498.64374 33.440624L498.64374 37.55L496.8781 37.55ZM506.8625 37.55L506.8625 27.175L508.4406 27.175L508.4406 28.628124Q508.925 27.878124 509.7375 27.409374Q510.55 26.940624 511.58124 26.940624Q512.7375 26.940624 513.47186 27.425Q514.20624 27.89375 514.51874 28.753124Q515.7531 26.940624 517.72186 26.940624Q519.26874 26.940624 520.09686 27.8Q520.925 28.659374 520.925 30.425L520.925 37.55L519.175 37.55L519.175 31.01875Q519.175 29.95625 519.0031 29.503124Q518.83124 29.034374 518.3781 28.753124Q517.9406 28.471874 517.33124 28.471874Q516.2375 28.471874 515.5031 29.20625Q514.78436 29.925 514.78436 31.51875L514.78436 37.55L513.03436 37.55L513.03436 30.815624Q513.03436 29.64375 512.59686 29.065624Q512.175 28.471874 511.1906 28.471874Q510.45624 28.471874 509.8156 28.8625Q509.1906 29.253124 508.90936 30.003124Q508.6281 30.753124 508.6281 32.175L508.6281 37.55L506.8625 37.55ZM529.97186 34.20625L531.78436 34.440624Q531.3625 36.01875 530.1906 36.909374Q529.03436 37.784374 527.22186 37.784374Q524.95624 37.784374 523.6125 36.39375Q522.28436 34.9875 522.28436 32.45625Q522.28436 29.83125 523.6281 28.39375Q524.97186 26.940624 527.1281 26.940624Q529.20624 26.940624 530.51874 28.3625Q531.84686 29.76875 531.84686 32.346874Q531.84686 32.503124 531.83124 32.815624L524.09686 32.815624Q524.1906 34.51875 525.0656 35.425Q525.9406 36.33125 527.2375 36.33125Q528.20624 36.33125 528.8781 35.83125Q529.5656 35.315624 529.97186 34.20625ZM524.1906 31.3625L529.9875 31.3625Q529.8781 30.065624 529.33124 29.409374Q528.4875 28.39375 527.14374 28.39375Q525.9406 28.39375 525.1125 29.20625Q524.28436 30.003124 524.1906 31.3625ZM540.64374 36.26875Q539.65936 37.096874 538.7531 37.440624Q537.84686 37.784374 536.8156 37.784374Q535.1125 37.784374 534.1906 36.95625Q533.26874 36.1125 533.26874 34.815624Q533.26874 34.05 533.6125 33.425Q533.97186 32.8 534.53436 32.425Q535.09686 32.034374 535.8 31.83125Q536.3156 31.70625 537.3625 31.565624Q539.4875 31.315624 540.4875 30.971874Q540.5031 30.6125 540.5031 30.503124Q540.5031 29.440624 540.0031 28.9875Q539.33124 28.39375 538.0031 28.39375Q536.7531 28.39375 536.15936 28.83125Q535.58124 29.26875 535.3 30.378124L533.58124 30.14375Q533.8156 29.034374 534.34686 28.3625Q534.8781 27.675 535.89374 27.315624Q536.90936 26.940624 538.2531 26.940624Q539.58124 26.940624 540.40936 27.253124Q541.2375 27.565624 541.6281 28.05Q542.01874 28.51875 542.175 29.2375Q542.26874 29.690624 542.26874 30.8625L542.26874 33.20625Q542.26874 35.659374 542.3781 36.315624Q542.4875 36.95625 542.83124 37.55L540.9875 37.55Q540.72186 37.003124 540.64374 36.26875ZM540.4875 32.346874Q539.53436 32.7375 537.6125 33.003124Q536.53436 33.159374 536.08124 33.3625Q535.64374 33.55 535.39374 33.925Q535.14374 34.3 535.14374 34.76875Q535.14374 35.471874 535.675 35.940624Q536.20624 36.409374 537.2375 36.409374Q538.2531 36.409374 539.03436 35.971874Q539.83124 35.51875 540.20624 34.753124Q540.4875 34.14375 540.4875 32.9875L540.4875 32.346874ZM544.8625 37.55L544.8625 27.175L546.45624 27.175L546.45624 28.659374Q547.59686 26.940624 549.7531 26.940624Q550.6906 26.940624 551.47186 27.284374Q552.26874 27.6125 552.65936 28.159374Q553.05 28.70625 553.20624 29.45625Q553.3 29.95625 553.3 31.175L553.3 37.55L551.53436 37.55L551.53436 31.2375Q551.53436 30.159374 551.33124 29.628124Q551.1281 29.096874 550.59686 28.784374Q550.08124 28.471874 549.3781 28.471874Q548.2531 28.471874 547.4406 29.190624Q546.6281 29.89375 546.6281 31.878124L546.6281 37.55L544.8625 37.55ZM554.15936 34.45625L555.90936 34.175Q556.05 35.221874 556.72186 35.784374Q557.39374 36.33125 558.59686 36.33125Q559.8 36.33125 560.3781 35.846874Q560.97186 35.346874 560.97186 34.690624Q560.97186 34.096874 560.45624 33.753124Q560.09686 33.51875 558.65936 33.159374Q556.72186 32.659374 555.97186 32.315624Q555.2375 31.95625 554.84686 31.33125Q554.45624 30.690624 554.45624 29.925Q554.45624 29.2375 554.76874 28.64375Q555.09686 28.05 555.64374 27.659374Q556.05 27.3625 556.7531 27.159374Q557.47186 26.940624 558.28436 26.940624Q559.5031 26.940624 560.425 27.3Q561.34686 27.64375 561.78436 28.253124Q562.22186 28.846874 562.39374 29.846874L560.675 30.08125Q560.55 29.284374 559.9875 28.846874Q559.425 28.39375 558.40936 28.39375Q557.1906 28.39375 556.675 28.8Q556.15936 29.190624 556.15936 29.721874Q556.15936 30.065624 556.3781 30.346874Q556.58124 30.628124 557.05 30.815624Q557.3156 30.909374 558.59686 31.253124Q560.47186 31.753124 561.20624 32.08125Q561.9406 32.39375 562.3625 33.003124Q562.78436 33.596874 562.78436 34.503124Q562.78436 35.378124 562.26874 36.159374Q561.7531 36.940624 560.78436 37.3625Q559.8156 37.784374 558.59686 37.784374Q556.58124 37.784374 555.51874 36.940624Q554.45624 36.096874 554.15936 34.45625Z" fill-rule="nonzero"/></svg>